M48
; DRILL file {KiCad 6.0.5-a6ca702e91~116~ubuntu22.04.1} date Thu 26 May 2022 03:12:16 AM CEST
; FORMAT={-:-/ absolute / inch / decimal}
; #@! TF.CreationDate,2022-05-26T03:12:16+02:00
; #@! TF.GenerationSoftware,Kicad,Pcbnew,6.0.5-a6ca702e91~116~ubuntu22.04.1
; #@! TF.FileFunction,Plated,1,4,PTH
FMAT,2
INCH
; #@! TA.AperFunction,Plated,PTH,ComponentDrill
T1C0.0118
; #@! TA.AperFunction,Plated,PTH,ComponentDrill
T2C0.0236
; #@! TA.AperFunction,Plated,PTH,ComponentDrill
T3C0.0374
; #@! TA.AperFunction,Plated,PTH,ComponentDrill
T4C0.0394
; #@! TA.AperFunction,Plated,PTH,ComponentDrill
T5C0.0512
; #@! TA.AperFunction,Plated,PTH,ComponentDrill
T6C0.1260
%
G90
G05
T1
X1.8701Y-2.2531
X1.8701Y-2.3232
X1.8701Y-2.3933
X1.8701Y-2.4634
X1.8701Y-2.5335
X1.8701Y-2.6035
X1.9213Y-2.2531
X1.9213Y-2.3232
X1.9213Y-2.3933
X1.9213Y-2.4634
X1.9213Y-2.5335
X1.9213Y-2.6035
X1.9724Y-2.2531
X1.9724Y-2.3232
X1.9724Y-2.3933
X1.9724Y-2.4634
X1.9724Y-2.5335
X1.9724Y-2.6035
T3
X1.8209Y-2.8937
X1.9193Y-2.8937
X2.0177Y-2.8937
X2.1161Y-2.8937
T4
X1.2685Y-1.5685
X1.2685Y-1.6685
X1.2685Y-1.7685
X1.2685Y-1.8685
X1.2685Y-1.9685
X1.2685Y-2.0685
X1.2685Y-2.1685
X1.2685Y-2.2685
X1.2685Y-2.3685
X1.3685Y-1.5685
X1.3685Y-1.6685
X1.3685Y-1.7685
X1.3685Y-1.8685
X1.3685Y-1.9685
X1.3685Y-2.0685
X1.3685Y-2.1685
X1.3685Y-2.2685
X1.3685Y-2.3685
X2.5685Y-1.6685
X2.5685Y-1.7685
X2.5685Y-1.8685
X2.6685Y-1.6685
X2.6685Y-1.7685
X2.6685Y-1.8685
T5
X2.5787Y-2.1071
X2.5787Y-2.3071
T6
X1.3583Y-1.3583
X1.3583Y-2.5787
X2.5787Y-1.3583
X2.5787Y-2.5787
T2
G00X2.4104Y-2.8091
M15
G01X2.4006Y-2.8091
M16
G05
G00X2.4104Y-2.9783
M15
G01X2.4006Y-2.9783
M16
G05
G00X2.5994Y-2.8091
M15
G01X2.5896Y-2.8091
M16
G05
G00X2.5994Y-2.9783
M15
G01X2.5896Y-2.9783
M16
G05
T0
M30
