G04 #@! TF.GenerationSoftware,KiCad,Pcbnew,6.0.5-a6ca702e91~116~ubuntu22.04.1*
G04 #@! TF.CreationDate,2022-05-26T01:26:51+02:00*
G04 #@! TF.ProjectId,driver-board,64726976-6572-42d6-926f-6172642e6b69,abc5fc4*
G04 #@! TF.SameCoordinates,Original*
G04 #@! TF.FileFunction,Legend,Top*
G04 #@! TF.FilePolarity,Positive*
%FSLAX46Y46*%
G04 Gerber Fmt 4.6, Leading zero omitted, Abs format (unit mm)*
G04 Created by KiCad (PCBNEW 6.0.5-a6ca702e91~116~ubuntu22.04.1) date 2022-05-26 01:26:51*
%MOMM*%
%LPD*%
G01*
G04 APERTURE LIST*
%ADD10C,0.150000*%
%ADD11C,0.120000*%
%ADD12C,0.127000*%
%ADD13C,0.200000*%
G04 APERTURE END LIST*
D10*
X48038095Y-67032380D02*
X48038095Y-67841904D01*
X48085714Y-67937142D01*
X48133333Y-67984761D01*
X48228571Y-68032380D01*
X48419047Y-68032380D01*
X48514285Y-67984761D01*
X48561904Y-67937142D01*
X48609523Y-67841904D01*
X48609523Y-67032380D01*
X49561904Y-67032380D02*
X49085714Y-67032380D01*
X49038095Y-67508571D01*
X49085714Y-67460952D01*
X49180952Y-67413333D01*
X49419047Y-67413333D01*
X49514285Y-67460952D01*
X49561904Y-67508571D01*
X49609523Y-67603809D01*
X49609523Y-67841904D01*
X49561904Y-67937142D01*
X49514285Y-67984761D01*
X49419047Y-68032380D01*
X49180952Y-68032380D01*
X49085714Y-67984761D01*
X49038095Y-67937142D01*
X56261904Y-55532380D02*
X56261904Y-54532380D01*
X56500000Y-54532380D01*
X56642857Y-54580000D01*
X56738095Y-54675238D01*
X56785714Y-54770476D01*
X56833333Y-54960952D01*
X56833333Y-55103809D01*
X56785714Y-55294285D01*
X56738095Y-55389523D01*
X56642857Y-55484761D01*
X56500000Y-55532380D01*
X56261904Y-55532380D01*
X57166666Y-54532380D02*
X57785714Y-54532380D01*
X57452380Y-54913333D01*
X57595238Y-54913333D01*
X57690476Y-54960952D01*
X57738095Y-55008571D01*
X57785714Y-55103809D01*
X57785714Y-55341904D01*
X57738095Y-55437142D01*
X57690476Y-55484761D01*
X57595238Y-55532380D01*
X57309523Y-55532380D01*
X57214285Y-55484761D01*
X57166666Y-55437142D01*
D11*
X58797836Y-33640000D02*
X58582164Y-33640000D01*
X58797836Y-34360000D02*
X58582164Y-34360000D01*
X44960000Y-64307836D02*
X44960000Y-64092164D01*
X44240000Y-64307836D02*
X44240000Y-64092164D01*
X56643641Y-33620000D02*
X56336359Y-33620000D01*
X56643641Y-34380000D02*
X56336359Y-34380000D01*
X45500000Y-36073641D02*
X45500000Y-35766359D01*
X44740000Y-36073641D02*
X44740000Y-35766359D01*
X47220000Y-57446359D02*
X47220000Y-57753641D01*
X47980000Y-57446359D02*
X47980000Y-57753641D01*
X36090000Y-61490000D02*
X36090000Y-38510000D01*
X32220000Y-61490000D02*
X30890000Y-61490000D01*
X30890000Y-61490000D02*
X30890000Y-60160000D01*
X33490000Y-58890000D02*
X30890000Y-58890000D01*
X36090000Y-61490000D02*
X33490000Y-61490000D01*
X30890000Y-58890000D02*
X30890000Y-38510000D01*
X33490000Y-61490000D02*
X33490000Y-58890000D01*
X36090000Y-38510000D02*
X30890000Y-38510000D01*
X58610000Y-59815748D02*
X58610000Y-56984252D01*
X53390000Y-59815748D02*
X53390000Y-56984252D01*
X52735000Y-68938748D02*
X52735000Y-69461252D01*
X51265000Y-68938748D02*
X51265000Y-69461252D01*
X46865000Y-69427064D02*
X46865000Y-68972936D01*
X48335000Y-69427064D02*
X48335000Y-68972936D01*
X46135000Y-68938748D02*
X46135000Y-69461252D01*
X44665000Y-68938748D02*
X44665000Y-69461252D01*
X44140000Y-73500000D02*
X44140000Y-72290000D01*
X44140000Y-72290000D02*
X55860000Y-72290000D01*
X56360000Y-75810000D02*
X56360000Y-71790000D01*
X43340000Y-76110000D02*
X45840000Y-76110000D01*
X56360000Y-71790000D02*
X43640000Y-71790000D01*
X43640000Y-75810000D02*
X56360000Y-75810000D01*
X56360000Y-74310000D02*
X55360000Y-74310000D01*
X55360000Y-74310000D02*
X55360000Y-75810000D01*
X43640000Y-74310000D02*
X44640000Y-74310000D01*
X43640000Y-71790000D02*
X43640000Y-75810000D01*
X55860000Y-73500000D02*
X56360000Y-73500000D01*
X55860000Y-72290000D02*
X55860000Y-73500000D01*
X43640000Y-73500000D02*
X44140000Y-73500000D01*
X43340000Y-73610000D02*
X43340000Y-76110000D01*
X44640000Y-74310000D02*
X44640000Y-75810000D01*
X43540000Y-36073641D02*
X43540000Y-35766359D01*
X44300000Y-36073641D02*
X44300000Y-35766359D01*
D12*
X58245000Y-33000000D02*
X57755000Y-33000000D01*
X58245000Y-31000000D02*
X57755000Y-31000000D01*
D13*
X59870000Y-32630000D02*
G75*
G03*
X59870000Y-32630000I-100000J0D01*
G01*
D11*
X53446359Y-63780000D02*
X53753641Y-63780000D01*
X53446359Y-63020000D02*
X53753641Y-63020000D01*
X44960000Y-60107836D02*
X44960000Y-59892164D01*
X44240000Y-60107836D02*
X44240000Y-59892164D01*
X53707836Y-60640000D02*
X53492164Y-60640000D01*
X53707836Y-61360000D02*
X53492164Y-61360000D01*
X53707836Y-62560000D02*
X53492164Y-62560000D01*
X53707836Y-61840000D02*
X53492164Y-61840000D01*
X50040000Y-57707836D02*
X50040000Y-57492164D01*
X50760000Y-57707836D02*
X50760000Y-57492164D01*
X56235000Y-50310000D02*
X56710000Y-50310000D01*
X56710000Y-50310000D02*
X56710000Y-49835000D01*
X52490000Y-50310000D02*
X52490000Y-49835000D01*
X56710000Y-46090000D02*
X56710000Y-46565000D01*
X52965000Y-46090000D02*
X52490000Y-46090000D01*
X56235000Y-46090000D02*
X56710000Y-46090000D01*
X52965000Y-50310000D02*
X52490000Y-50310000D01*
X57695563Y-63240000D02*
X58760000Y-64304437D01*
X54304437Y-63240000D02*
X54940000Y-63240000D01*
X53240000Y-68760000D02*
X54940000Y-68760000D01*
X57695563Y-63240000D02*
X57060000Y-63240000D01*
X54304437Y-63240000D02*
X53240000Y-64304437D01*
X58760000Y-68760000D02*
X57060000Y-68760000D01*
X58760000Y-64304437D02*
X58760000Y-68760000D01*
X53240000Y-64304437D02*
X53240000Y-68760000D01*
X44160000Y-64304437D02*
X44160000Y-68760000D01*
X43095563Y-63240000D02*
X44160000Y-64304437D01*
X39704437Y-63240000D02*
X38640000Y-64304437D01*
X38640000Y-64304437D02*
X38640000Y-68760000D01*
X38640000Y-68760000D02*
X40340000Y-68760000D01*
X44160000Y-68760000D02*
X42460000Y-68760000D01*
X39704437Y-63240000D02*
X40340000Y-63240000D01*
X43095563Y-63240000D02*
X42460000Y-63240000D01*
X49065000Y-69427064D02*
X49065000Y-68972936D01*
X50535000Y-69427064D02*
X50535000Y-68972936D01*
D10*
X46475000Y-56654200D02*
X46475000Y-56979200D01*
X51125000Y-66655000D02*
X51125000Y-66430000D01*
X51125000Y-66655000D02*
X46475000Y-66655000D01*
X51125000Y-66430000D02*
X52200000Y-66430000D01*
X51125000Y-56654200D02*
X51125000Y-56979200D01*
X46475000Y-66655000D02*
X46475000Y-66330000D01*
X51125000Y-56654200D02*
X46475000Y-56654200D01*
D11*
X38790000Y-59815748D02*
X38790000Y-56984252D01*
X44010000Y-59815748D02*
X44010000Y-56984252D01*
X59285000Y-51215000D02*
X55400000Y-51215000D01*
X59285000Y-54385000D02*
X59285000Y-51215000D01*
X55400000Y-54385000D02*
X59285000Y-54385000D01*
X39600000Y-33400000D02*
X42900000Y-33400000D01*
X39600000Y-30600000D02*
X42900000Y-30600000D01*
X39600000Y-30900000D02*
X39600000Y-30600000D01*
X42900000Y-30600000D02*
X42900000Y-30900000D01*
X42900000Y-33400000D02*
X42900000Y-33100000D01*
X39600000Y-33100000D02*
X39600000Y-33400000D01*
X46960000Y-35292164D02*
X46960000Y-35507836D01*
X46240000Y-35292164D02*
X46240000Y-35507836D01*
X55907836Y-35640000D02*
X55692164Y-35640000D01*
X55907836Y-36360000D02*
X55692164Y-36360000D01*
X57620000Y-40046359D02*
X57620000Y-40353641D01*
X58380000Y-40046359D02*
X58380000Y-40353641D01*
X70160000Y-61200000D02*
X70160000Y-50920000D01*
X60239000Y-50920000D02*
X70160000Y-50920000D01*
X63199000Y-61200000D02*
X63199000Y-50920000D01*
X68100000Y-61200000D02*
X68100000Y-50920000D01*
X66523000Y-54747000D02*
X66569000Y-54794000D01*
X64225000Y-52450000D02*
X64261000Y-52485000D01*
X64431000Y-52245000D02*
X64477000Y-52292000D01*
X69660000Y-61440000D02*
X70400000Y-61440000D01*
X70400000Y-61440000D02*
X70400000Y-60940000D01*
X69600000Y-61200000D02*
X69600000Y-50920000D01*
X60239000Y-61200000D02*
X70160000Y-61200000D01*
X60239000Y-61200000D02*
X60239000Y-50920000D01*
X66739000Y-54554000D02*
X66774000Y-54589000D01*
X64816000Y-60135000D02*
G75*
G03*
X66183042Y-60135427I684001J1534993D01*
G01*
X67180000Y-58600000D02*
G75*
G03*
X67034756Y-57916682I-1680000J0D01*
G01*
X67035000Y-59284000D02*
G75*
G03*
X67180253Y-58571195I-1535001J683999D01*
G01*
X66184000Y-57064999D02*
G75*
G03*
X64816958Y-57064573I-684000J-1535001D01*
G01*
X63965000Y-57916000D02*
G75*
G03*
X63964573Y-59283042I1534993J-684001D01*
G01*
X67180000Y-53520000D02*
G75*
G03*
X67180000Y-53520000I-1680000J0D01*
G01*
X49380000Y-57753641D02*
X49380000Y-57446359D01*
X48620000Y-57753641D02*
X48620000Y-57446359D01*
X40680000Y-35812164D02*
X40680000Y-36027836D01*
X39960000Y-35812164D02*
X39960000Y-36027836D01*
X61000000Y-39960000D02*
X60350000Y-39960000D01*
X61000000Y-39960000D02*
X61650000Y-39960000D01*
X61000000Y-36840000D02*
X61650000Y-36840000D01*
X61000000Y-36840000D02*
X59325000Y-36840000D01*
X62046359Y-49420000D02*
X62353641Y-49420000D01*
X62046359Y-50180000D02*
X62353641Y-50180000D01*
X50380000Y-35553641D02*
X50380000Y-35246359D01*
X49620000Y-35553641D02*
X49620000Y-35246359D01*
X54360000Y-35507836D02*
X54360000Y-35292164D01*
X53640000Y-35507836D02*
X53640000Y-35292164D01*
X39450000Y-36073641D02*
X39450000Y-35766359D01*
X38690000Y-36073641D02*
X38690000Y-35766359D01*
X50900000Y-35292164D02*
X50900000Y-35507836D01*
X51620000Y-35292164D02*
X51620000Y-35507836D01*
X56450000Y-38450000D02*
X54150000Y-38450000D01*
X54150000Y-38450000D02*
X54150000Y-41150000D01*
X38703641Y-37620000D02*
X38396359Y-37620000D01*
X38703641Y-38380000D02*
X38396359Y-38380000D01*
X47000000Y-54700000D02*
X47000000Y-55900000D01*
X48600000Y-54700000D02*
X48600000Y-55700000D01*
X54560000Y-44307836D02*
X54560000Y-44092164D01*
X53840000Y-44307836D02*
X53840000Y-44092164D01*
X56640000Y-44307836D02*
X56640000Y-44092164D01*
X57360000Y-44307836D02*
X57360000Y-44092164D01*
X62510000Y-44965000D02*
X62510000Y-44490000D01*
X58290000Y-44490000D02*
X58765000Y-44490000D01*
X62510000Y-48235000D02*
X62510000Y-48710000D01*
X62510000Y-44490000D02*
X62035000Y-44490000D01*
X62510000Y-48710000D02*
X62035000Y-48710000D01*
X58290000Y-48235000D02*
X58290000Y-48710000D01*
X58290000Y-44965000D02*
X58290000Y-44490000D01*
X48840000Y-48082836D02*
X48840000Y-47867164D01*
X49560000Y-48082836D02*
X49560000Y-47867164D01*
X42945000Y-45246359D02*
X42945000Y-45553641D01*
X42185000Y-45246359D02*
X42185000Y-45553641D01*
X40620000Y-44160000D02*
X38670000Y-44160000D01*
X40620000Y-44160000D02*
X42570000Y-44160000D01*
X40620000Y-39040000D02*
X42570000Y-39040000D01*
X40620000Y-39040000D02*
X37170000Y-39040000D01*
X52810000Y-44660000D02*
X52160000Y-44660000D01*
X52810000Y-44010000D02*
X52810000Y-44660000D01*
X45590000Y-38090000D02*
X45590000Y-37440000D01*
X45590000Y-44660000D02*
X46240000Y-44660000D01*
X45590000Y-37440000D02*
X46240000Y-37440000D01*
X52810000Y-38090000D02*
X52810000Y-37440000D01*
X45590000Y-44010000D02*
X45590000Y-44660000D01*
X38295000Y-45246359D02*
X38295000Y-45553641D01*
X39055000Y-45246359D02*
X39055000Y-45553641D01*
X41160000Y-35837164D02*
X41160000Y-36052836D01*
X41880000Y-35837164D02*
X41880000Y-36052836D01*
X44895000Y-46550000D02*
X44895000Y-46820000D01*
X43395000Y-46550000D02*
X44895000Y-46550000D01*
X44895000Y-53450000D02*
X44895000Y-53180000D01*
X44895000Y-53180000D02*
X47725000Y-53180000D01*
X44895000Y-46820000D02*
X45995000Y-46820000D01*
X43395000Y-53450000D02*
X44895000Y-53450000D01*
X49560000Y-51892164D02*
X49560000Y-52107836D01*
X48840000Y-51892164D02*
X48840000Y-52107836D01*
X39585000Y-45553641D02*
X39585000Y-45246359D01*
X40345000Y-45553641D02*
X40345000Y-45246359D01*
X55407836Y-37240000D02*
X55192164Y-37240000D01*
X55407836Y-37960000D02*
X55192164Y-37960000D01*
X69110000Y-48790000D02*
X66510000Y-48790000D01*
X63910000Y-46190000D02*
X63910000Y-41050000D01*
X66510000Y-48790000D02*
X66510000Y-46190000D01*
X65240000Y-48790000D02*
X63910000Y-48790000D01*
X63910000Y-48790000D02*
X63910000Y-47460000D01*
X69110000Y-48790000D02*
X69110000Y-41050000D01*
X66510000Y-46190000D02*
X63910000Y-46190000D01*
X69110000Y-41050000D02*
X63910000Y-41050000D01*
X41032164Y-37640000D02*
X41247836Y-37640000D01*
X41032164Y-38360000D02*
X41247836Y-38360000D01*
X55240000Y-44307836D02*
X55240000Y-44092164D01*
X55960000Y-44307836D02*
X55960000Y-44092164D01*
X55407836Y-41640000D02*
X55192164Y-41640000D01*
X55407836Y-42360000D02*
X55192164Y-42360000D01*
X43552164Y-37640000D02*
X43767836Y-37640000D01*
X43552164Y-38360000D02*
X43767836Y-38360000D01*
X41725000Y-45292164D02*
X41725000Y-45507836D01*
X41005000Y-45292164D02*
X41005000Y-45507836D01*
X62980000Y-40353641D02*
X62980000Y-40046359D01*
X62220000Y-40353641D02*
X62220000Y-40046359D01*
D12*
X48500000Y-33500000D02*
X51500000Y-33500000D01*
X46380000Y-30500000D02*
X46380000Y-33500000D01*
X48500000Y-30500000D02*
X51500000Y-30500000D01*
X53620000Y-30500000D02*
X53620000Y-33500000D01*
D13*
X54182000Y-32000000D02*
G75*
G03*
X54182000Y-32000000I-100000J0D01*
G01*
D11*
X61000000Y-43560000D02*
X61650000Y-43560000D01*
X61000000Y-40440000D02*
X61650000Y-40440000D01*
X61000000Y-40440000D02*
X59325000Y-40440000D01*
X61000000Y-43560000D02*
X60350000Y-43560000D01*
X52960000Y-35292164D02*
X52960000Y-35507836D01*
X52240000Y-35292164D02*
X52240000Y-35507836D01*
X55180000Y-33246359D02*
X55180000Y-33553641D01*
X54420000Y-33246359D02*
X54420000Y-33553641D01*
M02*
