G04 #@! TF.GenerationSoftware,KiCad,Pcbnew,6.0.5-a6ca702e91~116~ubuntu22.04.1*
G04 #@! TF.CreationDate,2022-05-26T01:26:51+02:00*
G04 #@! TF.ProjectId,driver-board,64726976-6572-42d6-926f-6172642e6b69,abc5fc4*
G04 #@! TF.SameCoordinates,Original*
G04 #@! TF.FileFunction,Paste,Top*
G04 #@! TF.FilePolarity,Positive*
%FSLAX46Y46*%
G04 Gerber Fmt 4.6, Leading zero omitted, Abs format (unit mm)*
G04 Created by KiCad (PCBNEW 6.0.5-a6ca702e91~116~ubuntu22.04.1) date 2022-05-26 01:26:51*
%MOMM*%
%LPD*%
G01*
G04 APERTURE LIST*
%ADD10R,0.700000X0.700000*%
%ADD11R,1.400000X1.400000*%
%ADD12R,1.100000X0.400000*%
%ADD13R,0.900000X1.700000*%
%ADD14R,0.800000X0.900000*%
%ADD15R,0.200000X0.530000*%
%ADD16R,3.050000X2.750000*%
%ADD17R,2.200000X1.200000*%
%ADD18R,1.500000X2.600000*%
G04 APERTURE END LIST*
G36*
G01*
X59450000Y-33830000D02*
X59450000Y-34170000D01*
G75*
G02*
X59310000Y-34310000I-140000J0D01*
G01*
X59030000Y-34310000D01*
G75*
G02*
X58890000Y-34170000I0J140000D01*
G01*
X58890000Y-33830000D01*
G75*
G02*
X59030000Y-33690000I140000J0D01*
G01*
X59310000Y-33690000D01*
G75*
G02*
X59450000Y-33830000I0J-140000D01*
G01*
G37*
G36*
G01*
X58490000Y-33830000D02*
X58490000Y-34170000D01*
G75*
G02*
X58350000Y-34310000I-140000J0D01*
G01*
X58070000Y-34310000D01*
G75*
G02*
X57930000Y-34170000I0J140000D01*
G01*
X57930000Y-33830000D01*
G75*
G02*
X58070000Y-33690000I140000J0D01*
G01*
X58350000Y-33690000D01*
G75*
G02*
X58490000Y-33830000I0J-140000D01*
G01*
G37*
G36*
G01*
X44770000Y-64960000D02*
X44430000Y-64960000D01*
G75*
G02*
X44290000Y-64820000I0J140000D01*
G01*
X44290000Y-64540000D01*
G75*
G02*
X44430000Y-64400000I140000J0D01*
G01*
X44770000Y-64400000D01*
G75*
G02*
X44910000Y-64540000I0J-140000D01*
G01*
X44910000Y-64820000D01*
G75*
G02*
X44770000Y-64960000I-140000J0D01*
G01*
G37*
G36*
G01*
X44770000Y-64000000D02*
X44430000Y-64000000D01*
G75*
G02*
X44290000Y-63860000I0J140000D01*
G01*
X44290000Y-63580000D01*
G75*
G02*
X44430000Y-63440000I140000J0D01*
G01*
X44770000Y-63440000D01*
G75*
G02*
X44910000Y-63580000I0J-140000D01*
G01*
X44910000Y-63860000D01*
G75*
G02*
X44770000Y-64000000I-140000J0D01*
G01*
G37*
G36*
G01*
X57270000Y-33815000D02*
X57270000Y-34185000D01*
G75*
G02*
X57135000Y-34320000I-135000J0D01*
G01*
X56865000Y-34320000D01*
G75*
G02*
X56730000Y-34185000I0J135000D01*
G01*
X56730000Y-33815000D01*
G75*
G02*
X56865000Y-33680000I135000J0D01*
G01*
X57135000Y-33680000D01*
G75*
G02*
X57270000Y-33815000I0J-135000D01*
G01*
G37*
G36*
G01*
X56250000Y-33815000D02*
X56250000Y-34185000D01*
G75*
G02*
X56115000Y-34320000I-135000J0D01*
G01*
X55845000Y-34320000D01*
G75*
G02*
X55710000Y-34185000I0J135000D01*
G01*
X55710000Y-33815000D01*
G75*
G02*
X55845000Y-33680000I135000J0D01*
G01*
X56115000Y-33680000D01*
G75*
G02*
X56250000Y-33815000I0J-135000D01*
G01*
G37*
G36*
G01*
X45305000Y-36700000D02*
X44935000Y-36700000D01*
G75*
G02*
X44800000Y-36565000I0J135000D01*
G01*
X44800000Y-36295000D01*
G75*
G02*
X44935000Y-36160000I135000J0D01*
G01*
X45305000Y-36160000D01*
G75*
G02*
X45440000Y-36295000I0J-135000D01*
G01*
X45440000Y-36565000D01*
G75*
G02*
X45305000Y-36700000I-135000J0D01*
G01*
G37*
G36*
G01*
X45305000Y-35680000D02*
X44935000Y-35680000D01*
G75*
G02*
X44800000Y-35545000I0J135000D01*
G01*
X44800000Y-35275000D01*
G75*
G02*
X44935000Y-35140000I135000J0D01*
G01*
X45305000Y-35140000D01*
G75*
G02*
X45440000Y-35275000I0J-135000D01*
G01*
X45440000Y-35545000D01*
G75*
G02*
X45305000Y-35680000I-135000J0D01*
G01*
G37*
G36*
G01*
X47415000Y-56820000D02*
X47785000Y-56820000D01*
G75*
G02*
X47920000Y-56955000I0J-135000D01*
G01*
X47920000Y-57225000D01*
G75*
G02*
X47785000Y-57360000I-135000J0D01*
G01*
X47415000Y-57360000D01*
G75*
G02*
X47280000Y-57225000I0J135000D01*
G01*
X47280000Y-56955000D01*
G75*
G02*
X47415000Y-56820000I135000J0D01*
G01*
G37*
G36*
G01*
X47415000Y-57840000D02*
X47785000Y-57840000D01*
G75*
G02*
X47920000Y-57975000I0J-135000D01*
G01*
X47920000Y-58245000D01*
G75*
G02*
X47785000Y-58380000I-135000J0D01*
G01*
X47415000Y-58380000D01*
G75*
G02*
X47280000Y-58245000I0J135000D01*
G01*
X47280000Y-57975000D01*
G75*
G02*
X47415000Y-57840000I135000J0D01*
G01*
G37*
G36*
G01*
X58450000Y-61850000D02*
X53550000Y-61850000D01*
G75*
G02*
X53300000Y-61600000I0J250000D01*
G01*
X53300000Y-60300000D01*
G75*
G02*
X53550000Y-60050000I250000J0D01*
G01*
X58450000Y-60050000D01*
G75*
G02*
X58700000Y-60300000I0J-250000D01*
G01*
X58700000Y-61600000D01*
G75*
G02*
X58450000Y-61850000I-250000J0D01*
G01*
G37*
G36*
G01*
X58450000Y-56750000D02*
X53550000Y-56750000D01*
G75*
G02*
X53300000Y-56500000I0J250000D01*
G01*
X53300000Y-55200000D01*
G75*
G02*
X53550000Y-54950000I250000J0D01*
G01*
X58450000Y-54950000D01*
G75*
G02*
X58700000Y-55200000I0J-250000D01*
G01*
X58700000Y-56500000D01*
G75*
G02*
X58450000Y-56750000I-250000J0D01*
G01*
G37*
G36*
G01*
X51525000Y-67750000D02*
X52475000Y-67750000D01*
G75*
G02*
X52725000Y-68000000I0J-250000D01*
G01*
X52725000Y-68500000D01*
G75*
G02*
X52475000Y-68750000I-250000J0D01*
G01*
X51525000Y-68750000D01*
G75*
G02*
X51275000Y-68500000I0J250000D01*
G01*
X51275000Y-68000000D01*
G75*
G02*
X51525000Y-67750000I250000J0D01*
G01*
G37*
G36*
G01*
X51525000Y-69650000D02*
X52475000Y-69650000D01*
G75*
G02*
X52725000Y-69900000I0J-250000D01*
G01*
X52725000Y-70400000D01*
G75*
G02*
X52475000Y-70650000I-250000J0D01*
G01*
X51525000Y-70650000D01*
G75*
G02*
X51275000Y-70400000I0J250000D01*
G01*
X51275000Y-69900000D01*
G75*
G02*
X51525000Y-69650000I250000J0D01*
G01*
G37*
G36*
G01*
X48050000Y-70625000D02*
X47150000Y-70625000D01*
G75*
G02*
X46900000Y-70375000I0J250000D01*
G01*
X46900000Y-69850000D01*
G75*
G02*
X47150000Y-69600000I250000J0D01*
G01*
X48050000Y-69600000D01*
G75*
G02*
X48300000Y-69850000I0J-250000D01*
G01*
X48300000Y-70375000D01*
G75*
G02*
X48050000Y-70625000I-250000J0D01*
G01*
G37*
G36*
G01*
X48050000Y-68800000D02*
X47150000Y-68800000D01*
G75*
G02*
X46900000Y-68550000I0J250000D01*
G01*
X46900000Y-68025000D01*
G75*
G02*
X47150000Y-67775000I250000J0D01*
G01*
X48050000Y-67775000D01*
G75*
G02*
X48300000Y-68025000I0J-250000D01*
G01*
X48300000Y-68550000D01*
G75*
G02*
X48050000Y-68800000I-250000J0D01*
G01*
G37*
G36*
G01*
X44925000Y-67750000D02*
X45875000Y-67750000D01*
G75*
G02*
X46125000Y-68000000I0J-250000D01*
G01*
X46125000Y-68500000D01*
G75*
G02*
X45875000Y-68750000I-250000J0D01*
G01*
X44925000Y-68750000D01*
G75*
G02*
X44675000Y-68500000I0J250000D01*
G01*
X44675000Y-68000000D01*
G75*
G02*
X44925000Y-67750000I250000J0D01*
G01*
G37*
G36*
G01*
X44925000Y-69650000D02*
X45875000Y-69650000D01*
G75*
G02*
X46125000Y-69900000I0J-250000D01*
G01*
X46125000Y-70400000D01*
G75*
G02*
X45875000Y-70650000I-250000J0D01*
G01*
X44925000Y-70650000D01*
G75*
G02*
X44675000Y-70400000I0J250000D01*
G01*
X44675000Y-69900000D01*
G75*
G02*
X44925000Y-69650000I250000J0D01*
G01*
G37*
G36*
G01*
X44105000Y-36700000D02*
X43735000Y-36700000D01*
G75*
G02*
X43600000Y-36565000I0J135000D01*
G01*
X43600000Y-36295000D01*
G75*
G02*
X43735000Y-36160000I135000J0D01*
G01*
X44105000Y-36160000D01*
G75*
G02*
X44240000Y-36295000I0J-135000D01*
G01*
X44240000Y-36565000D01*
G75*
G02*
X44105000Y-36700000I-135000J0D01*
G01*
G37*
G36*
G01*
X44105000Y-35680000D02*
X43735000Y-35680000D01*
G75*
G02*
X43600000Y-35545000I0J135000D01*
G01*
X43600000Y-35275000D01*
G75*
G02*
X43735000Y-35140000I135000J0D01*
G01*
X44105000Y-35140000D01*
G75*
G02*
X44240000Y-35275000I0J-135000D01*
G01*
X44240000Y-35545000D01*
G75*
G02*
X44105000Y-35680000I-135000J0D01*
G01*
G37*
D10*
X58915000Y-32550000D03*
X58915000Y-31450000D03*
X57085000Y-31450000D03*
X57085000Y-32550000D03*
G36*
G01*
X52820000Y-63585000D02*
X52820000Y-63215000D01*
G75*
G02*
X52955000Y-63080000I135000J0D01*
G01*
X53225000Y-63080000D01*
G75*
G02*
X53360000Y-63215000I0J-135000D01*
G01*
X53360000Y-63585000D01*
G75*
G02*
X53225000Y-63720000I-135000J0D01*
G01*
X52955000Y-63720000D01*
G75*
G02*
X52820000Y-63585000I0J135000D01*
G01*
G37*
G36*
G01*
X53840000Y-63585000D02*
X53840000Y-63215000D01*
G75*
G02*
X53975000Y-63080000I135000J0D01*
G01*
X54245000Y-63080000D01*
G75*
G02*
X54380000Y-63215000I0J-135000D01*
G01*
X54380000Y-63585000D01*
G75*
G02*
X54245000Y-63720000I-135000J0D01*
G01*
X53975000Y-63720000D01*
G75*
G02*
X53840000Y-63585000I0J135000D01*
G01*
G37*
G36*
G01*
X44770000Y-60760000D02*
X44430000Y-60760000D01*
G75*
G02*
X44290000Y-60620000I0J140000D01*
G01*
X44290000Y-60340000D01*
G75*
G02*
X44430000Y-60200000I140000J0D01*
G01*
X44770000Y-60200000D01*
G75*
G02*
X44910000Y-60340000I0J-140000D01*
G01*
X44910000Y-60620000D01*
G75*
G02*
X44770000Y-60760000I-140000J0D01*
G01*
G37*
G36*
G01*
X44770000Y-59800000D02*
X44430000Y-59800000D01*
G75*
G02*
X44290000Y-59660000I0J140000D01*
G01*
X44290000Y-59380000D01*
G75*
G02*
X44430000Y-59240000I140000J0D01*
G01*
X44770000Y-59240000D01*
G75*
G02*
X44910000Y-59380000I0J-140000D01*
G01*
X44910000Y-59660000D01*
G75*
G02*
X44770000Y-59800000I-140000J0D01*
G01*
G37*
G36*
G01*
X54360000Y-60830000D02*
X54360000Y-61170000D01*
G75*
G02*
X54220000Y-61310000I-140000J0D01*
G01*
X53940000Y-61310000D01*
G75*
G02*
X53800000Y-61170000I0J140000D01*
G01*
X53800000Y-60830000D01*
G75*
G02*
X53940000Y-60690000I140000J0D01*
G01*
X54220000Y-60690000D01*
G75*
G02*
X54360000Y-60830000I0J-140000D01*
G01*
G37*
G36*
G01*
X53400000Y-60830000D02*
X53400000Y-61170000D01*
G75*
G02*
X53260000Y-61310000I-140000J0D01*
G01*
X52980000Y-61310000D01*
G75*
G02*
X52840000Y-61170000I0J140000D01*
G01*
X52840000Y-60830000D01*
G75*
G02*
X52980000Y-60690000I140000J0D01*
G01*
X53260000Y-60690000D01*
G75*
G02*
X53400000Y-60830000I0J-140000D01*
G01*
G37*
G36*
G01*
X54360000Y-62030000D02*
X54360000Y-62370000D01*
G75*
G02*
X54220000Y-62510000I-140000J0D01*
G01*
X53940000Y-62510000D01*
G75*
G02*
X53800000Y-62370000I0J140000D01*
G01*
X53800000Y-62030000D01*
G75*
G02*
X53940000Y-61890000I140000J0D01*
G01*
X54220000Y-61890000D01*
G75*
G02*
X54360000Y-62030000I0J-140000D01*
G01*
G37*
G36*
G01*
X53400000Y-62030000D02*
X53400000Y-62370000D01*
G75*
G02*
X53260000Y-62510000I-140000J0D01*
G01*
X52980000Y-62510000D01*
G75*
G02*
X52840000Y-62370000I0J140000D01*
G01*
X52840000Y-62030000D01*
G75*
G02*
X52980000Y-61890000I140000J0D01*
G01*
X53260000Y-61890000D01*
G75*
G02*
X53400000Y-62030000I0J-140000D01*
G01*
G37*
G36*
G01*
X50570000Y-58360000D02*
X50230000Y-58360000D01*
G75*
G02*
X50090000Y-58220000I0J140000D01*
G01*
X50090000Y-57940000D01*
G75*
G02*
X50230000Y-57800000I140000J0D01*
G01*
X50570000Y-57800000D01*
G75*
G02*
X50710000Y-57940000I0J-140000D01*
G01*
X50710000Y-58220000D01*
G75*
G02*
X50570000Y-58360000I-140000J0D01*
G01*
G37*
G36*
G01*
X50570000Y-57400000D02*
X50230000Y-57400000D01*
G75*
G02*
X50090000Y-57260000I0J140000D01*
G01*
X50090000Y-56980000D01*
G75*
G02*
X50230000Y-56840000I140000J0D01*
G01*
X50570000Y-56840000D01*
G75*
G02*
X50710000Y-56980000I0J-140000D01*
G01*
X50710000Y-57260000D01*
G75*
G02*
X50570000Y-57400000I-140000J0D01*
G01*
G37*
G36*
G01*
X53380000Y-49170000D02*
X53380000Y-48580000D01*
G75*
G02*
X53630000Y-48330000I250000J0D01*
G01*
X54220000Y-48330000D01*
G75*
G02*
X54470000Y-48580000I0J-250000D01*
G01*
X54470000Y-49170000D01*
G75*
G02*
X54220000Y-49420000I-250000J0D01*
G01*
X53630000Y-49420000D01*
G75*
G02*
X53380000Y-49170000I0J250000D01*
G01*
G37*
G36*
G01*
X53380000Y-47820000D02*
X53380000Y-47230000D01*
G75*
G02*
X53630000Y-46980000I250000J0D01*
G01*
X54220000Y-46980000D01*
G75*
G02*
X54470000Y-47230000I0J-250000D01*
G01*
X54470000Y-47820000D01*
G75*
G02*
X54220000Y-48070000I-250000J0D01*
G01*
X53630000Y-48070000D01*
G75*
G02*
X53380000Y-47820000I0J250000D01*
G01*
G37*
G36*
G01*
X54730000Y-47820000D02*
X54730000Y-47230000D01*
G75*
G02*
X54980000Y-46980000I250000J0D01*
G01*
X55570000Y-46980000D01*
G75*
G02*
X55820000Y-47230000I0J-250000D01*
G01*
X55820000Y-47820000D01*
G75*
G02*
X55570000Y-48070000I-250000J0D01*
G01*
X54980000Y-48070000D01*
G75*
G02*
X54730000Y-47820000I0J250000D01*
G01*
G37*
G36*
G01*
X54730000Y-49170000D02*
X54730000Y-48580000D01*
G75*
G02*
X54980000Y-48330000I250000J0D01*
G01*
X55570000Y-48330000D01*
G75*
G02*
X55820000Y-48580000I0J-250000D01*
G01*
X55820000Y-49170000D01*
G75*
G02*
X55570000Y-49420000I-250000J0D01*
G01*
X54980000Y-49420000D01*
G75*
G02*
X54730000Y-49170000I0J250000D01*
G01*
G37*
G36*
G01*
X52225000Y-47012500D02*
X52225000Y-46887500D01*
G75*
G02*
X52287500Y-46825000I62500J0D01*
G01*
X52987500Y-46825000D01*
G75*
G02*
X53050000Y-46887500I0J-62500D01*
G01*
X53050000Y-47012500D01*
G75*
G02*
X52987500Y-47075000I-62500J0D01*
G01*
X52287500Y-47075000D01*
G75*
G02*
X52225000Y-47012500I0J62500D01*
G01*
G37*
G36*
G01*
X52225000Y-47512500D02*
X52225000Y-47387500D01*
G75*
G02*
X52287500Y-47325000I62500J0D01*
G01*
X52987500Y-47325000D01*
G75*
G02*
X53050000Y-47387500I0J-62500D01*
G01*
X53050000Y-47512500D01*
G75*
G02*
X52987500Y-47575000I-62500J0D01*
G01*
X52287500Y-47575000D01*
G75*
G02*
X52225000Y-47512500I0J62500D01*
G01*
G37*
G36*
G01*
X52225000Y-48012500D02*
X52225000Y-47887500D01*
G75*
G02*
X52287500Y-47825000I62500J0D01*
G01*
X52987500Y-47825000D01*
G75*
G02*
X53050000Y-47887500I0J-62500D01*
G01*
X53050000Y-48012500D01*
G75*
G02*
X52987500Y-48075000I-62500J0D01*
G01*
X52287500Y-48075000D01*
G75*
G02*
X52225000Y-48012500I0J62500D01*
G01*
G37*
G36*
G01*
X52225000Y-48512500D02*
X52225000Y-48387500D01*
G75*
G02*
X52287500Y-48325000I62500J0D01*
G01*
X52987500Y-48325000D01*
G75*
G02*
X53050000Y-48387500I0J-62500D01*
G01*
X53050000Y-48512500D01*
G75*
G02*
X52987500Y-48575000I-62500J0D01*
G01*
X52287500Y-48575000D01*
G75*
G02*
X52225000Y-48512500I0J62500D01*
G01*
G37*
G36*
G01*
X52225000Y-49012500D02*
X52225000Y-48887500D01*
G75*
G02*
X52287500Y-48825000I62500J0D01*
G01*
X52987500Y-48825000D01*
G75*
G02*
X53050000Y-48887500I0J-62500D01*
G01*
X53050000Y-49012500D01*
G75*
G02*
X52987500Y-49075000I-62500J0D01*
G01*
X52287500Y-49075000D01*
G75*
G02*
X52225000Y-49012500I0J62500D01*
G01*
G37*
G36*
G01*
X52225000Y-49512500D02*
X52225000Y-49387500D01*
G75*
G02*
X52287500Y-49325000I62500J0D01*
G01*
X52987500Y-49325000D01*
G75*
G02*
X53050000Y-49387500I0J-62500D01*
G01*
X53050000Y-49512500D01*
G75*
G02*
X52987500Y-49575000I-62500J0D01*
G01*
X52287500Y-49575000D01*
G75*
G02*
X52225000Y-49512500I0J62500D01*
G01*
G37*
G36*
G01*
X53225000Y-50512500D02*
X53225000Y-49812500D01*
G75*
G02*
X53287500Y-49750000I62500J0D01*
G01*
X53412500Y-49750000D01*
G75*
G02*
X53475000Y-49812500I0J-62500D01*
G01*
X53475000Y-50512500D01*
G75*
G02*
X53412500Y-50575000I-62500J0D01*
G01*
X53287500Y-50575000D01*
G75*
G02*
X53225000Y-50512500I0J62500D01*
G01*
G37*
G36*
G01*
X53725000Y-50512500D02*
X53725000Y-49812500D01*
G75*
G02*
X53787500Y-49750000I62500J0D01*
G01*
X53912500Y-49750000D01*
G75*
G02*
X53975000Y-49812500I0J-62500D01*
G01*
X53975000Y-50512500D01*
G75*
G02*
X53912500Y-50575000I-62500J0D01*
G01*
X53787500Y-50575000D01*
G75*
G02*
X53725000Y-50512500I0J62500D01*
G01*
G37*
G36*
G01*
X54225000Y-50512500D02*
X54225000Y-49812500D01*
G75*
G02*
X54287500Y-49750000I62500J0D01*
G01*
X54412500Y-49750000D01*
G75*
G02*
X54475000Y-49812500I0J-62500D01*
G01*
X54475000Y-50512500D01*
G75*
G02*
X54412500Y-50575000I-62500J0D01*
G01*
X54287500Y-50575000D01*
G75*
G02*
X54225000Y-50512500I0J62500D01*
G01*
G37*
G36*
G01*
X54725000Y-50512500D02*
X54725000Y-49812500D01*
G75*
G02*
X54787500Y-49750000I62500J0D01*
G01*
X54912500Y-49750000D01*
G75*
G02*
X54975000Y-49812500I0J-62500D01*
G01*
X54975000Y-50512500D01*
G75*
G02*
X54912500Y-50575000I-62500J0D01*
G01*
X54787500Y-50575000D01*
G75*
G02*
X54725000Y-50512500I0J62500D01*
G01*
G37*
G36*
G01*
X55225000Y-50512500D02*
X55225000Y-49812500D01*
G75*
G02*
X55287500Y-49750000I62500J0D01*
G01*
X55412500Y-49750000D01*
G75*
G02*
X55475000Y-49812500I0J-62500D01*
G01*
X55475000Y-50512500D01*
G75*
G02*
X55412500Y-50575000I-62500J0D01*
G01*
X55287500Y-50575000D01*
G75*
G02*
X55225000Y-50512500I0J62500D01*
G01*
G37*
G36*
G01*
X55725000Y-50512500D02*
X55725000Y-49812500D01*
G75*
G02*
X55787500Y-49750000I62500J0D01*
G01*
X55912500Y-49750000D01*
G75*
G02*
X55975000Y-49812500I0J-62500D01*
G01*
X55975000Y-50512500D01*
G75*
G02*
X55912500Y-50575000I-62500J0D01*
G01*
X55787500Y-50575000D01*
G75*
G02*
X55725000Y-50512500I0J62500D01*
G01*
G37*
G36*
G01*
X56150000Y-49512500D02*
X56150000Y-49387500D01*
G75*
G02*
X56212500Y-49325000I62500J0D01*
G01*
X56912500Y-49325000D01*
G75*
G02*
X56975000Y-49387500I0J-62500D01*
G01*
X56975000Y-49512500D01*
G75*
G02*
X56912500Y-49575000I-62500J0D01*
G01*
X56212500Y-49575000D01*
G75*
G02*
X56150000Y-49512500I0J62500D01*
G01*
G37*
G36*
G01*
X56150000Y-49012500D02*
X56150000Y-48887500D01*
G75*
G02*
X56212500Y-48825000I62500J0D01*
G01*
X56912500Y-48825000D01*
G75*
G02*
X56975000Y-48887500I0J-62500D01*
G01*
X56975000Y-49012500D01*
G75*
G02*
X56912500Y-49075000I-62500J0D01*
G01*
X56212500Y-49075000D01*
G75*
G02*
X56150000Y-49012500I0J62500D01*
G01*
G37*
G36*
G01*
X56150000Y-48512500D02*
X56150000Y-48387500D01*
G75*
G02*
X56212500Y-48325000I62500J0D01*
G01*
X56912500Y-48325000D01*
G75*
G02*
X56975000Y-48387500I0J-62500D01*
G01*
X56975000Y-48512500D01*
G75*
G02*
X56912500Y-48575000I-62500J0D01*
G01*
X56212500Y-48575000D01*
G75*
G02*
X56150000Y-48512500I0J62500D01*
G01*
G37*
G36*
G01*
X56150000Y-48012500D02*
X56150000Y-47887500D01*
G75*
G02*
X56212500Y-47825000I62500J0D01*
G01*
X56912500Y-47825000D01*
G75*
G02*
X56975000Y-47887500I0J-62500D01*
G01*
X56975000Y-48012500D01*
G75*
G02*
X56912500Y-48075000I-62500J0D01*
G01*
X56212500Y-48075000D01*
G75*
G02*
X56150000Y-48012500I0J62500D01*
G01*
G37*
G36*
G01*
X56150000Y-47512500D02*
X56150000Y-47387500D01*
G75*
G02*
X56212500Y-47325000I62500J0D01*
G01*
X56912500Y-47325000D01*
G75*
G02*
X56975000Y-47387500I0J-62500D01*
G01*
X56975000Y-47512500D01*
G75*
G02*
X56912500Y-47575000I-62500J0D01*
G01*
X56212500Y-47575000D01*
G75*
G02*
X56150000Y-47512500I0J62500D01*
G01*
G37*
G36*
G01*
X56150000Y-47012500D02*
X56150000Y-46887500D01*
G75*
G02*
X56212500Y-46825000I62500J0D01*
G01*
X56912500Y-46825000D01*
G75*
G02*
X56975000Y-46887500I0J-62500D01*
G01*
X56975000Y-47012500D01*
G75*
G02*
X56912500Y-47075000I-62500J0D01*
G01*
X56212500Y-47075000D01*
G75*
G02*
X56150000Y-47012500I0J62500D01*
G01*
G37*
G36*
G01*
X55725000Y-46587500D02*
X55725000Y-45887500D01*
G75*
G02*
X55787500Y-45825000I62500J0D01*
G01*
X55912500Y-45825000D01*
G75*
G02*
X55975000Y-45887500I0J-62500D01*
G01*
X55975000Y-46587500D01*
G75*
G02*
X55912500Y-46650000I-62500J0D01*
G01*
X55787500Y-46650000D01*
G75*
G02*
X55725000Y-46587500I0J62500D01*
G01*
G37*
G36*
G01*
X55225000Y-46587500D02*
X55225000Y-45887500D01*
G75*
G02*
X55287500Y-45825000I62500J0D01*
G01*
X55412500Y-45825000D01*
G75*
G02*
X55475000Y-45887500I0J-62500D01*
G01*
X55475000Y-46587500D01*
G75*
G02*
X55412500Y-46650000I-62500J0D01*
G01*
X55287500Y-46650000D01*
G75*
G02*
X55225000Y-46587500I0J62500D01*
G01*
G37*
G36*
G01*
X54725000Y-46587500D02*
X54725000Y-45887500D01*
G75*
G02*
X54787500Y-45825000I62500J0D01*
G01*
X54912500Y-45825000D01*
G75*
G02*
X54975000Y-45887500I0J-62500D01*
G01*
X54975000Y-46587500D01*
G75*
G02*
X54912500Y-46650000I-62500J0D01*
G01*
X54787500Y-46650000D01*
G75*
G02*
X54725000Y-46587500I0J62500D01*
G01*
G37*
G36*
G01*
X54225000Y-46587500D02*
X54225000Y-45887500D01*
G75*
G02*
X54287500Y-45825000I62500J0D01*
G01*
X54412500Y-45825000D01*
G75*
G02*
X54475000Y-45887500I0J-62500D01*
G01*
X54475000Y-46587500D01*
G75*
G02*
X54412500Y-46650000I-62500J0D01*
G01*
X54287500Y-46650000D01*
G75*
G02*
X54225000Y-46587500I0J62500D01*
G01*
G37*
G36*
G01*
X53725000Y-46587500D02*
X53725000Y-45887500D01*
G75*
G02*
X53787500Y-45825000I62500J0D01*
G01*
X53912500Y-45825000D01*
G75*
G02*
X53975000Y-45887500I0J-62500D01*
G01*
X53975000Y-46587500D01*
G75*
G02*
X53912500Y-46650000I-62500J0D01*
G01*
X53787500Y-46650000D01*
G75*
G02*
X53725000Y-46587500I0J62500D01*
G01*
G37*
G36*
G01*
X53225000Y-46587500D02*
X53225000Y-45887500D01*
G75*
G02*
X53287500Y-45825000I62500J0D01*
G01*
X53412500Y-45825000D01*
G75*
G02*
X53475000Y-45887500I0J-62500D01*
G01*
X53475000Y-46587500D01*
G75*
G02*
X53412500Y-46650000I-62500J0D01*
G01*
X53287500Y-46650000D01*
G75*
G02*
X53225000Y-46587500I0J62500D01*
G01*
G37*
G36*
G01*
X55450000Y-62550000D02*
X56550000Y-62550000D01*
G75*
G02*
X56800000Y-62800000I0J-250000D01*
G01*
X56800000Y-65075000D01*
G75*
G02*
X56550000Y-65325000I-250000J0D01*
G01*
X55450000Y-65325000D01*
G75*
G02*
X55200000Y-65075000I0J250000D01*
G01*
X55200000Y-62800000D01*
G75*
G02*
X55450000Y-62550000I250000J0D01*
G01*
G37*
G36*
G01*
X55450000Y-66675000D02*
X56550000Y-66675000D01*
G75*
G02*
X56800000Y-66925000I0J-250000D01*
G01*
X56800000Y-69200000D01*
G75*
G02*
X56550000Y-69450000I-250000J0D01*
G01*
X55450000Y-69450000D01*
G75*
G02*
X55200000Y-69200000I0J250000D01*
G01*
X55200000Y-66925000D01*
G75*
G02*
X55450000Y-66675000I250000J0D01*
G01*
G37*
G36*
G01*
X40850000Y-62550000D02*
X41950000Y-62550000D01*
G75*
G02*
X42200000Y-62800000I0J-250000D01*
G01*
X42200000Y-65075000D01*
G75*
G02*
X41950000Y-65325000I-250000J0D01*
G01*
X40850000Y-65325000D01*
G75*
G02*
X40600000Y-65075000I0J250000D01*
G01*
X40600000Y-62800000D01*
G75*
G02*
X40850000Y-62550000I250000J0D01*
G01*
G37*
G36*
G01*
X40850000Y-66675000D02*
X41950000Y-66675000D01*
G75*
G02*
X42200000Y-66925000I0J-250000D01*
G01*
X42200000Y-69200000D01*
G75*
G02*
X41950000Y-69450000I-250000J0D01*
G01*
X40850000Y-69450000D01*
G75*
G02*
X40600000Y-69200000I0J250000D01*
G01*
X40600000Y-66925000D01*
G75*
G02*
X40850000Y-66675000I250000J0D01*
G01*
G37*
G36*
G01*
X50250000Y-70625000D02*
X49350000Y-70625000D01*
G75*
G02*
X49100000Y-70375000I0J250000D01*
G01*
X49100000Y-69850000D01*
G75*
G02*
X49350000Y-69600000I250000J0D01*
G01*
X50250000Y-69600000D01*
G75*
G02*
X50500000Y-69850000I0J-250000D01*
G01*
X50500000Y-70375000D01*
G75*
G02*
X50250000Y-70625000I-250000J0D01*
G01*
G37*
G36*
G01*
X50250000Y-68800000D02*
X49350000Y-68800000D01*
G75*
G02*
X49100000Y-68550000I0J250000D01*
G01*
X49100000Y-68025000D01*
G75*
G02*
X49350000Y-67775000I250000J0D01*
G01*
X50250000Y-67775000D01*
G75*
G02*
X50500000Y-68025000I0J-250000D01*
G01*
X50500000Y-68550000D01*
G75*
G02*
X50250000Y-68800000I-250000J0D01*
G01*
G37*
D11*
X49650000Y-58120000D03*
X47950000Y-65240000D03*
X49650000Y-61680000D03*
X49650000Y-65240000D03*
X49650000Y-63460000D03*
X47950000Y-61680000D03*
X47950000Y-63460000D03*
X47950000Y-58120000D03*
X47950000Y-59900000D03*
X49650000Y-59900000D03*
D12*
X51650000Y-65905000D03*
X51650000Y-65255000D03*
X51650000Y-64605000D03*
X51650000Y-63955000D03*
X51650000Y-63305000D03*
X51650000Y-62655000D03*
X51650000Y-62005000D03*
X51650000Y-61355000D03*
X51650000Y-60705000D03*
X51650000Y-60055000D03*
X51650000Y-59405000D03*
X51650000Y-58755000D03*
X51650000Y-58105000D03*
X51650000Y-57455000D03*
X45950000Y-57455000D03*
X45950000Y-58105000D03*
X45950000Y-58755000D03*
X45950000Y-59405000D03*
X45950000Y-60055000D03*
X45950000Y-60705000D03*
X45950000Y-61355000D03*
X45950000Y-62005000D03*
X45950000Y-62655000D03*
X45950000Y-63305000D03*
X45950000Y-63955000D03*
X45950000Y-64605000D03*
X45950000Y-65255000D03*
X45950000Y-65905000D03*
G36*
G01*
X43850000Y-61850000D02*
X38950000Y-61850000D01*
G75*
G02*
X38700000Y-61600000I0J250000D01*
G01*
X38700000Y-60300000D01*
G75*
G02*
X38950000Y-60050000I250000J0D01*
G01*
X43850000Y-60050000D01*
G75*
G02*
X44100000Y-60300000I0J-250000D01*
G01*
X44100000Y-61600000D01*
G75*
G02*
X43850000Y-61850000I-250000J0D01*
G01*
G37*
G36*
G01*
X43850000Y-56750000D02*
X38950000Y-56750000D01*
G75*
G02*
X38700000Y-56500000I0J250000D01*
G01*
X38700000Y-55200000D01*
G75*
G02*
X38950000Y-54950000I250000J0D01*
G01*
X43850000Y-54950000D01*
G75*
G02*
X44100000Y-55200000I0J-250000D01*
G01*
X44100000Y-56500000D01*
G75*
G02*
X43850000Y-56750000I-250000J0D01*
G01*
G37*
G36*
G01*
X59025000Y-51725000D02*
X59025000Y-53875000D01*
G75*
G02*
X58775000Y-54125000I-250000J0D01*
G01*
X58025000Y-54125000D01*
G75*
G02*
X57775000Y-53875000I0J250000D01*
G01*
X57775000Y-51725000D01*
G75*
G02*
X58025000Y-51475000I250000J0D01*
G01*
X58775000Y-51475000D01*
G75*
G02*
X59025000Y-51725000I0J-250000D01*
G01*
G37*
G36*
G01*
X56225000Y-51725000D02*
X56225000Y-53875000D01*
G75*
G02*
X55975000Y-54125000I-250000J0D01*
G01*
X55225000Y-54125000D01*
G75*
G02*
X54975000Y-53875000I0J250000D01*
G01*
X54975000Y-51725000D01*
G75*
G02*
X55225000Y-51475000I250000J0D01*
G01*
X55975000Y-51475000D01*
G75*
G02*
X56225000Y-51725000I0J-250000D01*
G01*
G37*
D13*
X39550000Y-32000000D03*
X42950000Y-32000000D03*
G36*
G01*
X46430000Y-34640000D02*
X46770000Y-34640000D01*
G75*
G02*
X46910000Y-34780000I0J-140000D01*
G01*
X46910000Y-35060000D01*
G75*
G02*
X46770000Y-35200000I-140000J0D01*
G01*
X46430000Y-35200000D01*
G75*
G02*
X46290000Y-35060000I0J140000D01*
G01*
X46290000Y-34780000D01*
G75*
G02*
X46430000Y-34640000I140000J0D01*
G01*
G37*
G36*
G01*
X46430000Y-35600000D02*
X46770000Y-35600000D01*
G75*
G02*
X46910000Y-35740000I0J-140000D01*
G01*
X46910000Y-36020000D01*
G75*
G02*
X46770000Y-36160000I-140000J0D01*
G01*
X46430000Y-36160000D01*
G75*
G02*
X46290000Y-36020000I0J140000D01*
G01*
X46290000Y-35740000D01*
G75*
G02*
X46430000Y-35600000I140000J0D01*
G01*
G37*
G36*
G01*
X56560000Y-35830000D02*
X56560000Y-36170000D01*
G75*
G02*
X56420000Y-36310000I-140000J0D01*
G01*
X56140000Y-36310000D01*
G75*
G02*
X56000000Y-36170000I0J140000D01*
G01*
X56000000Y-35830000D01*
G75*
G02*
X56140000Y-35690000I140000J0D01*
G01*
X56420000Y-35690000D01*
G75*
G02*
X56560000Y-35830000I0J-140000D01*
G01*
G37*
G36*
G01*
X55600000Y-35830000D02*
X55600000Y-36170000D01*
G75*
G02*
X55460000Y-36310000I-140000J0D01*
G01*
X55180000Y-36310000D01*
G75*
G02*
X55040000Y-36170000I0J140000D01*
G01*
X55040000Y-35830000D01*
G75*
G02*
X55180000Y-35690000I140000J0D01*
G01*
X55460000Y-35690000D01*
G75*
G02*
X55600000Y-35830000I0J-140000D01*
G01*
G37*
G36*
G01*
X57815000Y-39420000D02*
X58185000Y-39420000D01*
G75*
G02*
X58320000Y-39555000I0J-135000D01*
G01*
X58320000Y-39825000D01*
G75*
G02*
X58185000Y-39960000I-135000J0D01*
G01*
X57815000Y-39960000D01*
G75*
G02*
X57680000Y-39825000I0J135000D01*
G01*
X57680000Y-39555000D01*
G75*
G02*
X57815000Y-39420000I135000J0D01*
G01*
G37*
G36*
G01*
X57815000Y-40440000D02*
X58185000Y-40440000D01*
G75*
G02*
X58320000Y-40575000I0J-135000D01*
G01*
X58320000Y-40845000D01*
G75*
G02*
X58185000Y-40980000I-135000J0D01*
G01*
X57815000Y-40980000D01*
G75*
G02*
X57680000Y-40845000I0J135000D01*
G01*
X57680000Y-40575000D01*
G75*
G02*
X57815000Y-40440000I135000J0D01*
G01*
G37*
G36*
G01*
X49185000Y-58380000D02*
X48815000Y-58380000D01*
G75*
G02*
X48680000Y-58245000I0J135000D01*
G01*
X48680000Y-57975000D01*
G75*
G02*
X48815000Y-57840000I135000J0D01*
G01*
X49185000Y-57840000D01*
G75*
G02*
X49320000Y-57975000I0J-135000D01*
G01*
X49320000Y-58245000D01*
G75*
G02*
X49185000Y-58380000I-135000J0D01*
G01*
G37*
G36*
G01*
X49185000Y-57360000D02*
X48815000Y-57360000D01*
G75*
G02*
X48680000Y-57225000I0J135000D01*
G01*
X48680000Y-56955000D01*
G75*
G02*
X48815000Y-56820000I135000J0D01*
G01*
X49185000Y-56820000D01*
G75*
G02*
X49320000Y-56955000I0J-135000D01*
G01*
X49320000Y-57225000D01*
G75*
G02*
X49185000Y-57360000I-135000J0D01*
G01*
G37*
G36*
G01*
X40150000Y-35160000D02*
X40490000Y-35160000D01*
G75*
G02*
X40630000Y-35300000I0J-140000D01*
G01*
X40630000Y-35580000D01*
G75*
G02*
X40490000Y-35720000I-140000J0D01*
G01*
X40150000Y-35720000D01*
G75*
G02*
X40010000Y-35580000I0J140000D01*
G01*
X40010000Y-35300000D01*
G75*
G02*
X40150000Y-35160000I140000J0D01*
G01*
G37*
G36*
G01*
X40150000Y-36120000D02*
X40490000Y-36120000D01*
G75*
G02*
X40630000Y-36260000I0J-140000D01*
G01*
X40630000Y-36540000D01*
G75*
G02*
X40490000Y-36680000I-140000J0D01*
G01*
X40150000Y-36680000D01*
G75*
G02*
X40010000Y-36540000I0J140000D01*
G01*
X40010000Y-36260000D01*
G75*
G02*
X40150000Y-36120000I140000J0D01*
G01*
G37*
G36*
G01*
X59325000Y-37600000D02*
X59325000Y-37300000D01*
G75*
G02*
X59475000Y-37150000I150000J0D01*
G01*
X60650000Y-37150000D01*
G75*
G02*
X60800000Y-37300000I0J-150000D01*
G01*
X60800000Y-37600000D01*
G75*
G02*
X60650000Y-37750000I-150000J0D01*
G01*
X59475000Y-37750000D01*
G75*
G02*
X59325000Y-37600000I0J150000D01*
G01*
G37*
G36*
G01*
X59325000Y-39500000D02*
X59325000Y-39200000D01*
G75*
G02*
X59475000Y-39050000I150000J0D01*
G01*
X60650000Y-39050000D01*
G75*
G02*
X60800000Y-39200000I0J-150000D01*
G01*
X60800000Y-39500000D01*
G75*
G02*
X60650000Y-39650000I-150000J0D01*
G01*
X59475000Y-39650000D01*
G75*
G02*
X59325000Y-39500000I0J150000D01*
G01*
G37*
G36*
G01*
X61200000Y-38550000D02*
X61200000Y-38250000D01*
G75*
G02*
X61350000Y-38100000I150000J0D01*
G01*
X62525000Y-38100000D01*
G75*
G02*
X62675000Y-38250000I0J-150000D01*
G01*
X62675000Y-38550000D01*
G75*
G02*
X62525000Y-38700000I-150000J0D01*
G01*
X61350000Y-38700000D01*
G75*
G02*
X61200000Y-38550000I0J150000D01*
G01*
G37*
G36*
G01*
X61420000Y-49985000D02*
X61420000Y-49615000D01*
G75*
G02*
X61555000Y-49480000I135000J0D01*
G01*
X61825000Y-49480000D01*
G75*
G02*
X61960000Y-49615000I0J-135000D01*
G01*
X61960000Y-49985000D01*
G75*
G02*
X61825000Y-50120000I-135000J0D01*
G01*
X61555000Y-50120000D01*
G75*
G02*
X61420000Y-49985000I0J135000D01*
G01*
G37*
G36*
G01*
X62440000Y-49985000D02*
X62440000Y-49615000D01*
G75*
G02*
X62575000Y-49480000I135000J0D01*
G01*
X62845000Y-49480000D01*
G75*
G02*
X62980000Y-49615000I0J-135000D01*
G01*
X62980000Y-49985000D01*
G75*
G02*
X62845000Y-50120000I-135000J0D01*
G01*
X62575000Y-50120000D01*
G75*
G02*
X62440000Y-49985000I0J135000D01*
G01*
G37*
G36*
G01*
X50185000Y-36180000D02*
X49815000Y-36180000D01*
G75*
G02*
X49680000Y-36045000I0J135000D01*
G01*
X49680000Y-35775000D01*
G75*
G02*
X49815000Y-35640000I135000J0D01*
G01*
X50185000Y-35640000D01*
G75*
G02*
X50320000Y-35775000I0J-135000D01*
G01*
X50320000Y-36045000D01*
G75*
G02*
X50185000Y-36180000I-135000J0D01*
G01*
G37*
G36*
G01*
X50185000Y-35160000D02*
X49815000Y-35160000D01*
G75*
G02*
X49680000Y-35025000I0J135000D01*
G01*
X49680000Y-34755000D01*
G75*
G02*
X49815000Y-34620000I135000J0D01*
G01*
X50185000Y-34620000D01*
G75*
G02*
X50320000Y-34755000I0J-135000D01*
G01*
X50320000Y-35025000D01*
G75*
G02*
X50185000Y-35160000I-135000J0D01*
G01*
G37*
G36*
G01*
X54170000Y-36160000D02*
X53830000Y-36160000D01*
G75*
G02*
X53690000Y-36020000I0J140000D01*
G01*
X53690000Y-35740000D01*
G75*
G02*
X53830000Y-35600000I140000J0D01*
G01*
X54170000Y-35600000D01*
G75*
G02*
X54310000Y-35740000I0J-140000D01*
G01*
X54310000Y-36020000D01*
G75*
G02*
X54170000Y-36160000I-140000J0D01*
G01*
G37*
G36*
G01*
X54170000Y-35200000D02*
X53830000Y-35200000D01*
G75*
G02*
X53690000Y-35060000I0J140000D01*
G01*
X53690000Y-34780000D01*
G75*
G02*
X53830000Y-34640000I140000J0D01*
G01*
X54170000Y-34640000D01*
G75*
G02*
X54310000Y-34780000I0J-140000D01*
G01*
X54310000Y-35060000D01*
G75*
G02*
X54170000Y-35200000I-140000J0D01*
G01*
G37*
G36*
G01*
X39255000Y-36700000D02*
X38885000Y-36700000D01*
G75*
G02*
X38750000Y-36565000I0J135000D01*
G01*
X38750000Y-36295000D01*
G75*
G02*
X38885000Y-36160000I135000J0D01*
G01*
X39255000Y-36160000D01*
G75*
G02*
X39390000Y-36295000I0J-135000D01*
G01*
X39390000Y-36565000D01*
G75*
G02*
X39255000Y-36700000I-135000J0D01*
G01*
G37*
G36*
G01*
X39255000Y-35680000D02*
X38885000Y-35680000D01*
G75*
G02*
X38750000Y-35545000I0J135000D01*
G01*
X38750000Y-35275000D01*
G75*
G02*
X38885000Y-35140000I135000J0D01*
G01*
X39255000Y-35140000D01*
G75*
G02*
X39390000Y-35275000I0J-135000D01*
G01*
X39390000Y-35545000D01*
G75*
G02*
X39255000Y-35680000I-135000J0D01*
G01*
G37*
G36*
G01*
X51090000Y-34640000D02*
X51430000Y-34640000D01*
G75*
G02*
X51570000Y-34780000I0J-140000D01*
G01*
X51570000Y-35060000D01*
G75*
G02*
X51430000Y-35200000I-140000J0D01*
G01*
X51090000Y-35200000D01*
G75*
G02*
X50950000Y-35060000I0J140000D01*
G01*
X50950000Y-34780000D01*
G75*
G02*
X51090000Y-34640000I140000J0D01*
G01*
G37*
G36*
G01*
X51090000Y-35600000D02*
X51430000Y-35600000D01*
G75*
G02*
X51570000Y-35740000I0J-140000D01*
G01*
X51570000Y-36020000D01*
G75*
G02*
X51430000Y-36160000I-140000J0D01*
G01*
X51090000Y-36160000D01*
G75*
G02*
X50950000Y-36020000I0J140000D01*
G01*
X50950000Y-35740000D01*
G75*
G02*
X51090000Y-35600000I140000J0D01*
G01*
G37*
D14*
X54750000Y-39100000D03*
X54750000Y-40500000D03*
X55850000Y-40500000D03*
X55850000Y-39100000D03*
G36*
G01*
X39330000Y-37815000D02*
X39330000Y-38185000D01*
G75*
G02*
X39195000Y-38320000I-135000J0D01*
G01*
X38925000Y-38320000D01*
G75*
G02*
X38790000Y-38185000I0J135000D01*
G01*
X38790000Y-37815000D01*
G75*
G02*
X38925000Y-37680000I135000J0D01*
G01*
X39195000Y-37680000D01*
G75*
G02*
X39330000Y-37815000I0J-135000D01*
G01*
G37*
G36*
G01*
X38310000Y-37815000D02*
X38310000Y-38185000D01*
G75*
G02*
X38175000Y-38320000I-135000J0D01*
G01*
X37905000Y-38320000D01*
G75*
G02*
X37770000Y-38185000I0J135000D01*
G01*
X37770000Y-37815000D01*
G75*
G02*
X37905000Y-37680000I135000J0D01*
G01*
X38175000Y-37680000D01*
G75*
G02*
X38310000Y-37815000I0J-135000D01*
G01*
G37*
D15*
X47275000Y-55535000D03*
X47625000Y-55535000D03*
X47975000Y-55535000D03*
X48325000Y-55535000D03*
X48325000Y-54865000D03*
X47975000Y-54865000D03*
X47625000Y-54865000D03*
X47275000Y-54865000D03*
G36*
G01*
X54370000Y-44960000D02*
X54030000Y-44960000D01*
G75*
G02*
X53890000Y-44820000I0J140000D01*
G01*
X53890000Y-44540000D01*
G75*
G02*
X54030000Y-44400000I140000J0D01*
G01*
X54370000Y-44400000D01*
G75*
G02*
X54510000Y-44540000I0J-140000D01*
G01*
X54510000Y-44820000D01*
G75*
G02*
X54370000Y-44960000I-140000J0D01*
G01*
G37*
G36*
G01*
X54370000Y-44000000D02*
X54030000Y-44000000D01*
G75*
G02*
X53890000Y-43860000I0J140000D01*
G01*
X53890000Y-43580000D01*
G75*
G02*
X54030000Y-43440000I140000J0D01*
G01*
X54370000Y-43440000D01*
G75*
G02*
X54510000Y-43580000I0J-140000D01*
G01*
X54510000Y-43860000D01*
G75*
G02*
X54370000Y-44000000I-140000J0D01*
G01*
G37*
G36*
G01*
X57170000Y-44960000D02*
X56830000Y-44960000D01*
G75*
G02*
X56690000Y-44820000I0J140000D01*
G01*
X56690000Y-44540000D01*
G75*
G02*
X56830000Y-44400000I140000J0D01*
G01*
X57170000Y-44400000D01*
G75*
G02*
X57310000Y-44540000I0J-140000D01*
G01*
X57310000Y-44820000D01*
G75*
G02*
X57170000Y-44960000I-140000J0D01*
G01*
G37*
G36*
G01*
X57170000Y-44000000D02*
X56830000Y-44000000D01*
G75*
G02*
X56690000Y-43860000I0J140000D01*
G01*
X56690000Y-43580000D01*
G75*
G02*
X56830000Y-43440000I140000J0D01*
G01*
X57170000Y-43440000D01*
G75*
G02*
X57310000Y-43580000I0J-140000D01*
G01*
X57310000Y-43860000D01*
G75*
G02*
X57170000Y-44000000I-140000J0D01*
G01*
G37*
G36*
G01*
X61325000Y-46475000D02*
X60775000Y-46475000D01*
G75*
G02*
X60525000Y-46225000I0J250000D01*
G01*
X60525000Y-45675000D01*
G75*
G02*
X60775000Y-45425000I250000J0D01*
G01*
X61325000Y-45425000D01*
G75*
G02*
X61575000Y-45675000I0J-250000D01*
G01*
X61575000Y-46225000D01*
G75*
G02*
X61325000Y-46475000I-250000J0D01*
G01*
G37*
G36*
G01*
X61325000Y-47775000D02*
X60775000Y-47775000D01*
G75*
G02*
X60525000Y-47525000I0J250000D01*
G01*
X60525000Y-46975000D01*
G75*
G02*
X60775000Y-46725000I250000J0D01*
G01*
X61325000Y-46725000D01*
G75*
G02*
X61575000Y-46975000I0J-250000D01*
G01*
X61575000Y-47525000D01*
G75*
G02*
X61325000Y-47775000I-250000J0D01*
G01*
G37*
G36*
G01*
X60025000Y-47775000D02*
X59475000Y-47775000D01*
G75*
G02*
X59225000Y-47525000I0J250000D01*
G01*
X59225000Y-46975000D01*
G75*
G02*
X59475000Y-46725000I250000J0D01*
G01*
X60025000Y-46725000D01*
G75*
G02*
X60275000Y-46975000I0J-250000D01*
G01*
X60275000Y-47525000D01*
G75*
G02*
X60025000Y-47775000I-250000J0D01*
G01*
G37*
G36*
G01*
X60025000Y-46475000D02*
X59475000Y-46475000D01*
G75*
G02*
X59225000Y-46225000I0J250000D01*
G01*
X59225000Y-45675000D01*
G75*
G02*
X59475000Y-45425000I250000J0D01*
G01*
X60025000Y-45425000D01*
G75*
G02*
X60275000Y-45675000I0J-250000D01*
G01*
X60275000Y-46225000D01*
G75*
G02*
X60025000Y-46475000I-250000J0D01*
G01*
G37*
G36*
G01*
X59212500Y-48950000D02*
X59087500Y-48950000D01*
G75*
G02*
X59025000Y-48887500I0J62500D01*
G01*
X59025000Y-48187500D01*
G75*
G02*
X59087500Y-48125000I62500J0D01*
G01*
X59212500Y-48125000D01*
G75*
G02*
X59275000Y-48187500I0J-62500D01*
G01*
X59275000Y-48887500D01*
G75*
G02*
X59212500Y-48950000I-62500J0D01*
G01*
G37*
G36*
G01*
X59712500Y-48950000D02*
X59587500Y-48950000D01*
G75*
G02*
X59525000Y-48887500I0J62500D01*
G01*
X59525000Y-48187500D01*
G75*
G02*
X59587500Y-48125000I62500J0D01*
G01*
X59712500Y-48125000D01*
G75*
G02*
X59775000Y-48187500I0J-62500D01*
G01*
X59775000Y-48887500D01*
G75*
G02*
X59712500Y-48950000I-62500J0D01*
G01*
G37*
G36*
G01*
X60212500Y-48950000D02*
X60087500Y-48950000D01*
G75*
G02*
X60025000Y-48887500I0J62500D01*
G01*
X60025000Y-48187500D01*
G75*
G02*
X60087500Y-48125000I62500J0D01*
G01*
X60212500Y-48125000D01*
G75*
G02*
X60275000Y-48187500I0J-62500D01*
G01*
X60275000Y-48887500D01*
G75*
G02*
X60212500Y-48950000I-62500J0D01*
G01*
G37*
G36*
G01*
X60712500Y-48950000D02*
X60587500Y-48950000D01*
G75*
G02*
X60525000Y-48887500I0J62500D01*
G01*
X60525000Y-48187500D01*
G75*
G02*
X60587500Y-48125000I62500J0D01*
G01*
X60712500Y-48125000D01*
G75*
G02*
X60775000Y-48187500I0J-62500D01*
G01*
X60775000Y-48887500D01*
G75*
G02*
X60712500Y-48950000I-62500J0D01*
G01*
G37*
G36*
G01*
X61212500Y-48950000D02*
X61087500Y-48950000D01*
G75*
G02*
X61025000Y-48887500I0J62500D01*
G01*
X61025000Y-48187500D01*
G75*
G02*
X61087500Y-48125000I62500J0D01*
G01*
X61212500Y-48125000D01*
G75*
G02*
X61275000Y-48187500I0J-62500D01*
G01*
X61275000Y-48887500D01*
G75*
G02*
X61212500Y-48950000I-62500J0D01*
G01*
G37*
G36*
G01*
X61712500Y-48950000D02*
X61587500Y-48950000D01*
G75*
G02*
X61525000Y-48887500I0J62500D01*
G01*
X61525000Y-48187500D01*
G75*
G02*
X61587500Y-48125000I62500J0D01*
G01*
X61712500Y-48125000D01*
G75*
G02*
X61775000Y-48187500I0J-62500D01*
G01*
X61775000Y-48887500D01*
G75*
G02*
X61712500Y-48950000I-62500J0D01*
G01*
G37*
G36*
G01*
X62687500Y-47975000D02*
X61987500Y-47975000D01*
G75*
G02*
X61925000Y-47912500I0J62500D01*
G01*
X61925000Y-47787500D01*
G75*
G02*
X61987500Y-47725000I62500J0D01*
G01*
X62687500Y-47725000D01*
G75*
G02*
X62750000Y-47787500I0J-62500D01*
G01*
X62750000Y-47912500D01*
G75*
G02*
X62687500Y-47975000I-62500J0D01*
G01*
G37*
G36*
G01*
X62687500Y-47475000D02*
X61987500Y-47475000D01*
G75*
G02*
X61925000Y-47412500I0J62500D01*
G01*
X61925000Y-47287500D01*
G75*
G02*
X61987500Y-47225000I62500J0D01*
G01*
X62687500Y-47225000D01*
G75*
G02*
X62750000Y-47287500I0J-62500D01*
G01*
X62750000Y-47412500D01*
G75*
G02*
X62687500Y-47475000I-62500J0D01*
G01*
G37*
G36*
G01*
X62687500Y-46975000D02*
X61987500Y-46975000D01*
G75*
G02*
X61925000Y-46912500I0J62500D01*
G01*
X61925000Y-46787500D01*
G75*
G02*
X61987500Y-46725000I62500J0D01*
G01*
X62687500Y-46725000D01*
G75*
G02*
X62750000Y-46787500I0J-62500D01*
G01*
X62750000Y-46912500D01*
G75*
G02*
X62687500Y-46975000I-62500J0D01*
G01*
G37*
G36*
G01*
X62687500Y-46475000D02*
X61987500Y-46475000D01*
G75*
G02*
X61925000Y-46412500I0J62500D01*
G01*
X61925000Y-46287500D01*
G75*
G02*
X61987500Y-46225000I62500J0D01*
G01*
X62687500Y-46225000D01*
G75*
G02*
X62750000Y-46287500I0J-62500D01*
G01*
X62750000Y-46412500D01*
G75*
G02*
X62687500Y-46475000I-62500J0D01*
G01*
G37*
G36*
G01*
X62687500Y-45975000D02*
X61987500Y-45975000D01*
G75*
G02*
X61925000Y-45912500I0J62500D01*
G01*
X61925000Y-45787500D01*
G75*
G02*
X61987500Y-45725000I62500J0D01*
G01*
X62687500Y-45725000D01*
G75*
G02*
X62750000Y-45787500I0J-62500D01*
G01*
X62750000Y-45912500D01*
G75*
G02*
X62687500Y-45975000I-62500J0D01*
G01*
G37*
G36*
G01*
X62687500Y-45475000D02*
X61987500Y-45475000D01*
G75*
G02*
X61925000Y-45412500I0J62500D01*
G01*
X61925000Y-45287500D01*
G75*
G02*
X61987500Y-45225000I62500J0D01*
G01*
X62687500Y-45225000D01*
G75*
G02*
X62750000Y-45287500I0J-62500D01*
G01*
X62750000Y-45412500D01*
G75*
G02*
X62687500Y-45475000I-62500J0D01*
G01*
G37*
G36*
G01*
X61712500Y-45075000D02*
X61587500Y-45075000D01*
G75*
G02*
X61525000Y-45012500I0J62500D01*
G01*
X61525000Y-44312500D01*
G75*
G02*
X61587500Y-44250000I62500J0D01*
G01*
X61712500Y-44250000D01*
G75*
G02*
X61775000Y-44312500I0J-62500D01*
G01*
X61775000Y-45012500D01*
G75*
G02*
X61712500Y-45075000I-62500J0D01*
G01*
G37*
G36*
G01*
X61212500Y-45075000D02*
X61087500Y-45075000D01*
G75*
G02*
X61025000Y-45012500I0J62500D01*
G01*
X61025000Y-44312500D01*
G75*
G02*
X61087500Y-44250000I62500J0D01*
G01*
X61212500Y-44250000D01*
G75*
G02*
X61275000Y-44312500I0J-62500D01*
G01*
X61275000Y-45012500D01*
G75*
G02*
X61212500Y-45075000I-62500J0D01*
G01*
G37*
G36*
G01*
X60712500Y-45075000D02*
X60587500Y-45075000D01*
G75*
G02*
X60525000Y-45012500I0J62500D01*
G01*
X60525000Y-44312500D01*
G75*
G02*
X60587500Y-44250000I62500J0D01*
G01*
X60712500Y-44250000D01*
G75*
G02*
X60775000Y-44312500I0J-62500D01*
G01*
X60775000Y-45012500D01*
G75*
G02*
X60712500Y-45075000I-62500J0D01*
G01*
G37*
G36*
G01*
X60212500Y-45075000D02*
X60087500Y-45075000D01*
G75*
G02*
X60025000Y-45012500I0J62500D01*
G01*
X60025000Y-44312500D01*
G75*
G02*
X60087500Y-44250000I62500J0D01*
G01*
X60212500Y-44250000D01*
G75*
G02*
X60275000Y-44312500I0J-62500D01*
G01*
X60275000Y-45012500D01*
G75*
G02*
X60212500Y-45075000I-62500J0D01*
G01*
G37*
G36*
G01*
X59712500Y-45075000D02*
X59587500Y-45075000D01*
G75*
G02*
X59525000Y-45012500I0J62500D01*
G01*
X59525000Y-44312500D01*
G75*
G02*
X59587500Y-44250000I62500J0D01*
G01*
X59712500Y-44250000D01*
G75*
G02*
X59775000Y-44312500I0J-62500D01*
G01*
X59775000Y-45012500D01*
G75*
G02*
X59712500Y-45075000I-62500J0D01*
G01*
G37*
G36*
G01*
X59212500Y-45075000D02*
X59087500Y-45075000D01*
G75*
G02*
X59025000Y-45012500I0J62500D01*
G01*
X59025000Y-44312500D01*
G75*
G02*
X59087500Y-44250000I62500J0D01*
G01*
X59212500Y-44250000D01*
G75*
G02*
X59275000Y-44312500I0J-62500D01*
G01*
X59275000Y-45012500D01*
G75*
G02*
X59212500Y-45075000I-62500J0D01*
G01*
G37*
G36*
G01*
X58812500Y-45475000D02*
X58112500Y-45475000D01*
G75*
G02*
X58050000Y-45412500I0J62500D01*
G01*
X58050000Y-45287500D01*
G75*
G02*
X58112500Y-45225000I62500J0D01*
G01*
X58812500Y-45225000D01*
G75*
G02*
X58875000Y-45287500I0J-62500D01*
G01*
X58875000Y-45412500D01*
G75*
G02*
X58812500Y-45475000I-62500J0D01*
G01*
G37*
G36*
G01*
X58812500Y-45975000D02*
X58112500Y-45975000D01*
G75*
G02*
X58050000Y-45912500I0J62500D01*
G01*
X58050000Y-45787500D01*
G75*
G02*
X58112500Y-45725000I62500J0D01*
G01*
X58812500Y-45725000D01*
G75*
G02*
X58875000Y-45787500I0J-62500D01*
G01*
X58875000Y-45912500D01*
G75*
G02*
X58812500Y-45975000I-62500J0D01*
G01*
G37*
G36*
G01*
X58812500Y-46475000D02*
X58112500Y-46475000D01*
G75*
G02*
X58050000Y-46412500I0J62500D01*
G01*
X58050000Y-46287500D01*
G75*
G02*
X58112500Y-46225000I62500J0D01*
G01*
X58812500Y-46225000D01*
G75*
G02*
X58875000Y-46287500I0J-62500D01*
G01*
X58875000Y-46412500D01*
G75*
G02*
X58812500Y-46475000I-62500J0D01*
G01*
G37*
G36*
G01*
X58812500Y-46975000D02*
X58112500Y-46975000D01*
G75*
G02*
X58050000Y-46912500I0J62500D01*
G01*
X58050000Y-46787500D01*
G75*
G02*
X58112500Y-46725000I62500J0D01*
G01*
X58812500Y-46725000D01*
G75*
G02*
X58875000Y-46787500I0J-62500D01*
G01*
X58875000Y-46912500D01*
G75*
G02*
X58812500Y-46975000I-62500J0D01*
G01*
G37*
G36*
G01*
X58812500Y-47475000D02*
X58112500Y-47475000D01*
G75*
G02*
X58050000Y-47412500I0J62500D01*
G01*
X58050000Y-47287500D01*
G75*
G02*
X58112500Y-47225000I62500J0D01*
G01*
X58812500Y-47225000D01*
G75*
G02*
X58875000Y-47287500I0J-62500D01*
G01*
X58875000Y-47412500D01*
G75*
G02*
X58812500Y-47475000I-62500J0D01*
G01*
G37*
G36*
G01*
X58812500Y-47975000D02*
X58112500Y-47975000D01*
G75*
G02*
X58050000Y-47912500I0J62500D01*
G01*
X58050000Y-47787500D01*
G75*
G02*
X58112500Y-47725000I62500J0D01*
G01*
X58812500Y-47725000D01*
G75*
G02*
X58875000Y-47787500I0J-62500D01*
G01*
X58875000Y-47912500D01*
G75*
G02*
X58812500Y-47975000I-62500J0D01*
G01*
G37*
G36*
G01*
X49370000Y-48735000D02*
X49030000Y-48735000D01*
G75*
G02*
X48890000Y-48595000I0J140000D01*
G01*
X48890000Y-48315000D01*
G75*
G02*
X49030000Y-48175000I140000J0D01*
G01*
X49370000Y-48175000D01*
G75*
G02*
X49510000Y-48315000I0J-140000D01*
G01*
X49510000Y-48595000D01*
G75*
G02*
X49370000Y-48735000I-140000J0D01*
G01*
G37*
G36*
G01*
X49370000Y-47775000D02*
X49030000Y-47775000D01*
G75*
G02*
X48890000Y-47635000I0J140000D01*
G01*
X48890000Y-47355000D01*
G75*
G02*
X49030000Y-47215000I140000J0D01*
G01*
X49370000Y-47215000D01*
G75*
G02*
X49510000Y-47355000I0J-140000D01*
G01*
X49510000Y-47635000D01*
G75*
G02*
X49370000Y-47775000I-140000J0D01*
G01*
G37*
G36*
G01*
X42380000Y-44620000D02*
X42750000Y-44620000D01*
G75*
G02*
X42885000Y-44755000I0J-135000D01*
G01*
X42885000Y-45025000D01*
G75*
G02*
X42750000Y-45160000I-135000J0D01*
G01*
X42380000Y-45160000D01*
G75*
G02*
X42245000Y-45025000I0J135000D01*
G01*
X42245000Y-44755000D01*
G75*
G02*
X42380000Y-44620000I135000J0D01*
G01*
G37*
G36*
G01*
X42380000Y-45640000D02*
X42750000Y-45640000D01*
G75*
G02*
X42885000Y-45775000I0J-135000D01*
G01*
X42885000Y-46045000D01*
G75*
G02*
X42750000Y-46180000I-135000J0D01*
G01*
X42380000Y-46180000D01*
G75*
G02*
X42245000Y-46045000I0J135000D01*
G01*
X42245000Y-45775000D01*
G75*
G02*
X42380000Y-45640000I135000J0D01*
G01*
G37*
G36*
G01*
X37170000Y-39845000D02*
X37170000Y-39545000D01*
G75*
G02*
X37320000Y-39395000I150000J0D01*
G01*
X38970000Y-39395000D01*
G75*
G02*
X39120000Y-39545000I0J-150000D01*
G01*
X39120000Y-39845000D01*
G75*
G02*
X38970000Y-39995000I-150000J0D01*
G01*
X37320000Y-39995000D01*
G75*
G02*
X37170000Y-39845000I0J150000D01*
G01*
G37*
G36*
G01*
X37170000Y-41115000D02*
X37170000Y-40815000D01*
G75*
G02*
X37320000Y-40665000I150000J0D01*
G01*
X38970000Y-40665000D01*
G75*
G02*
X39120000Y-40815000I0J-150000D01*
G01*
X39120000Y-41115000D01*
G75*
G02*
X38970000Y-41265000I-150000J0D01*
G01*
X37320000Y-41265000D01*
G75*
G02*
X37170000Y-41115000I0J150000D01*
G01*
G37*
G36*
G01*
X37170000Y-42385000D02*
X37170000Y-42085000D01*
G75*
G02*
X37320000Y-41935000I150000J0D01*
G01*
X38970000Y-41935000D01*
G75*
G02*
X39120000Y-42085000I0J-150000D01*
G01*
X39120000Y-42385000D01*
G75*
G02*
X38970000Y-42535000I-150000J0D01*
G01*
X37320000Y-42535000D01*
G75*
G02*
X37170000Y-42385000I0J150000D01*
G01*
G37*
G36*
G01*
X37170000Y-43655000D02*
X37170000Y-43355000D01*
G75*
G02*
X37320000Y-43205000I150000J0D01*
G01*
X38970000Y-43205000D01*
G75*
G02*
X39120000Y-43355000I0J-150000D01*
G01*
X39120000Y-43655000D01*
G75*
G02*
X38970000Y-43805000I-150000J0D01*
G01*
X37320000Y-43805000D01*
G75*
G02*
X37170000Y-43655000I0J150000D01*
G01*
G37*
G36*
G01*
X42120000Y-43655000D02*
X42120000Y-43355000D01*
G75*
G02*
X42270000Y-43205000I150000J0D01*
G01*
X43920000Y-43205000D01*
G75*
G02*
X44070000Y-43355000I0J-150000D01*
G01*
X44070000Y-43655000D01*
G75*
G02*
X43920000Y-43805000I-150000J0D01*
G01*
X42270000Y-43805000D01*
G75*
G02*
X42120000Y-43655000I0J150000D01*
G01*
G37*
G36*
G01*
X42120000Y-42385000D02*
X42120000Y-42085000D01*
G75*
G02*
X42270000Y-41935000I150000J0D01*
G01*
X43920000Y-41935000D01*
G75*
G02*
X44070000Y-42085000I0J-150000D01*
G01*
X44070000Y-42385000D01*
G75*
G02*
X43920000Y-42535000I-150000J0D01*
G01*
X42270000Y-42535000D01*
G75*
G02*
X42120000Y-42385000I0J150000D01*
G01*
G37*
G36*
G01*
X42120000Y-41115000D02*
X42120000Y-40815000D01*
G75*
G02*
X42270000Y-40665000I150000J0D01*
G01*
X43920000Y-40665000D01*
G75*
G02*
X44070000Y-40815000I0J-150000D01*
G01*
X44070000Y-41115000D01*
G75*
G02*
X43920000Y-41265000I-150000J0D01*
G01*
X42270000Y-41265000D01*
G75*
G02*
X42120000Y-41115000I0J150000D01*
G01*
G37*
G36*
G01*
X42120000Y-39845000D02*
X42120000Y-39545000D01*
G75*
G02*
X42270000Y-39395000I150000J0D01*
G01*
X43920000Y-39395000D01*
G75*
G02*
X44070000Y-39545000I0J-150000D01*
G01*
X44070000Y-39845000D01*
G75*
G02*
X43920000Y-39995000I-150000J0D01*
G01*
X42270000Y-39995000D01*
G75*
G02*
X42120000Y-39845000I0J150000D01*
G01*
G37*
G36*
G01*
X49585000Y-42585000D02*
X50215000Y-42585000D01*
G75*
G02*
X50465000Y-42835000I0J-250000D01*
G01*
X50465000Y-43465000D01*
G75*
G02*
X50215000Y-43715000I-250000J0D01*
G01*
X49585000Y-43715000D01*
G75*
G02*
X49335000Y-43465000I0J250000D01*
G01*
X49335000Y-42835000D01*
G75*
G02*
X49585000Y-42585000I250000J0D01*
G01*
G37*
G36*
G01*
X50985000Y-38385000D02*
X51615000Y-38385000D01*
G75*
G02*
X51865000Y-38635000I0J-250000D01*
G01*
X51865000Y-39265000D01*
G75*
G02*
X51615000Y-39515000I-250000J0D01*
G01*
X50985000Y-39515000D01*
G75*
G02*
X50735000Y-39265000I0J250000D01*
G01*
X50735000Y-38635000D01*
G75*
G02*
X50985000Y-38385000I250000J0D01*
G01*
G37*
G36*
G01*
X49585000Y-39785000D02*
X50215000Y-39785000D01*
G75*
G02*
X50465000Y-40035000I0J-250000D01*
G01*
X50465000Y-40665000D01*
G75*
G02*
X50215000Y-40915000I-250000J0D01*
G01*
X49585000Y-40915000D01*
G75*
G02*
X49335000Y-40665000I0J250000D01*
G01*
X49335000Y-40035000D01*
G75*
G02*
X49585000Y-39785000I250000J0D01*
G01*
G37*
G36*
G01*
X48185000Y-39785000D02*
X48815000Y-39785000D01*
G75*
G02*
X49065000Y-40035000I0J-250000D01*
G01*
X49065000Y-40665000D01*
G75*
G02*
X48815000Y-40915000I-250000J0D01*
G01*
X48185000Y-40915000D01*
G75*
G02*
X47935000Y-40665000I0J250000D01*
G01*
X47935000Y-40035000D01*
G75*
G02*
X48185000Y-39785000I250000J0D01*
G01*
G37*
G36*
G01*
X50985000Y-41185000D02*
X51615000Y-41185000D01*
G75*
G02*
X51865000Y-41435000I0J-250000D01*
G01*
X51865000Y-42065000D01*
G75*
G02*
X51615000Y-42315000I-250000J0D01*
G01*
X50985000Y-42315000D01*
G75*
G02*
X50735000Y-42065000I0J250000D01*
G01*
X50735000Y-41435000D01*
G75*
G02*
X50985000Y-41185000I250000J0D01*
G01*
G37*
G36*
G01*
X50985000Y-39785000D02*
X51615000Y-39785000D01*
G75*
G02*
X51865000Y-40035000I0J-250000D01*
G01*
X51865000Y-40665000D01*
G75*
G02*
X51615000Y-40915000I-250000J0D01*
G01*
X50985000Y-40915000D01*
G75*
G02*
X50735000Y-40665000I0J250000D01*
G01*
X50735000Y-40035000D01*
G75*
G02*
X50985000Y-39785000I250000J0D01*
G01*
G37*
G36*
G01*
X48185000Y-38385000D02*
X48815000Y-38385000D01*
G75*
G02*
X49065000Y-38635000I0J-250000D01*
G01*
X49065000Y-39265000D01*
G75*
G02*
X48815000Y-39515000I-250000J0D01*
G01*
X48185000Y-39515000D01*
G75*
G02*
X47935000Y-39265000I0J250000D01*
G01*
X47935000Y-38635000D01*
G75*
G02*
X48185000Y-38385000I250000J0D01*
G01*
G37*
G36*
G01*
X46785000Y-42585000D02*
X47415000Y-42585000D01*
G75*
G02*
X47665000Y-42835000I0J-250000D01*
G01*
X47665000Y-43465000D01*
G75*
G02*
X47415000Y-43715000I-250000J0D01*
G01*
X46785000Y-43715000D01*
G75*
G02*
X46535000Y-43465000I0J250000D01*
G01*
X46535000Y-42835000D01*
G75*
G02*
X46785000Y-42585000I250000J0D01*
G01*
G37*
G36*
G01*
X46785000Y-41185000D02*
X47415000Y-41185000D01*
G75*
G02*
X47665000Y-41435000I0J-250000D01*
G01*
X47665000Y-42065000D01*
G75*
G02*
X47415000Y-42315000I-250000J0D01*
G01*
X46785000Y-42315000D01*
G75*
G02*
X46535000Y-42065000I0J250000D01*
G01*
X46535000Y-41435000D01*
G75*
G02*
X46785000Y-41185000I250000J0D01*
G01*
G37*
G36*
G01*
X46785000Y-39785000D02*
X47415000Y-39785000D01*
G75*
G02*
X47665000Y-40035000I0J-250000D01*
G01*
X47665000Y-40665000D01*
G75*
G02*
X47415000Y-40915000I-250000J0D01*
G01*
X46785000Y-40915000D01*
G75*
G02*
X46535000Y-40665000I0J250000D01*
G01*
X46535000Y-40035000D01*
G75*
G02*
X46785000Y-39785000I250000J0D01*
G01*
G37*
G36*
G01*
X48185000Y-42585000D02*
X48815000Y-42585000D01*
G75*
G02*
X49065000Y-42835000I0J-250000D01*
G01*
X49065000Y-43465000D01*
G75*
G02*
X48815000Y-43715000I-250000J0D01*
G01*
X48185000Y-43715000D01*
G75*
G02*
X47935000Y-43465000I0J250000D01*
G01*
X47935000Y-42835000D01*
G75*
G02*
X48185000Y-42585000I250000J0D01*
G01*
G37*
G36*
G01*
X49585000Y-41185000D02*
X50215000Y-41185000D01*
G75*
G02*
X50465000Y-41435000I0J-250000D01*
G01*
X50465000Y-42065000D01*
G75*
G02*
X50215000Y-42315000I-250000J0D01*
G01*
X49585000Y-42315000D01*
G75*
G02*
X49335000Y-42065000I0J250000D01*
G01*
X49335000Y-41435000D01*
G75*
G02*
X49585000Y-41185000I250000J0D01*
G01*
G37*
G36*
G01*
X49585000Y-38385000D02*
X50215000Y-38385000D01*
G75*
G02*
X50465000Y-38635000I0J-250000D01*
G01*
X50465000Y-39265000D01*
G75*
G02*
X50215000Y-39515000I-250000J0D01*
G01*
X49585000Y-39515000D01*
G75*
G02*
X49335000Y-39265000I0J250000D01*
G01*
X49335000Y-38635000D01*
G75*
G02*
X49585000Y-38385000I250000J0D01*
G01*
G37*
G36*
G01*
X48185000Y-41185000D02*
X48815000Y-41185000D01*
G75*
G02*
X49065000Y-41435000I0J-250000D01*
G01*
X49065000Y-42065000D01*
G75*
G02*
X48815000Y-42315000I-250000J0D01*
G01*
X48185000Y-42315000D01*
G75*
G02*
X47935000Y-42065000I0J250000D01*
G01*
X47935000Y-41435000D01*
G75*
G02*
X48185000Y-41185000I250000J0D01*
G01*
G37*
G36*
G01*
X50985000Y-42585000D02*
X51615000Y-42585000D01*
G75*
G02*
X51865000Y-42835000I0J-250000D01*
G01*
X51865000Y-43465000D01*
G75*
G02*
X51615000Y-43715000I-250000J0D01*
G01*
X50985000Y-43715000D01*
G75*
G02*
X50735000Y-43465000I0J250000D01*
G01*
X50735000Y-42835000D01*
G75*
G02*
X50985000Y-42585000I250000J0D01*
G01*
G37*
G36*
G01*
X46785000Y-38385000D02*
X47415000Y-38385000D01*
G75*
G02*
X47665000Y-38635000I0J-250000D01*
G01*
X47665000Y-39265000D01*
G75*
G02*
X47415000Y-39515000I-250000J0D01*
G01*
X46785000Y-39515000D01*
G75*
G02*
X46535000Y-39265000I0J250000D01*
G01*
X46535000Y-38635000D01*
G75*
G02*
X46785000Y-38385000I250000J0D01*
G01*
G37*
G36*
G01*
X51750000Y-37175000D02*
X51850000Y-37175000D01*
G75*
G02*
X51900000Y-37225000I0J-50000D01*
G01*
X51900000Y-38000000D01*
G75*
G02*
X51850000Y-38050000I-50000J0D01*
G01*
X51750000Y-38050000D01*
G75*
G02*
X51700000Y-38000000I0J50000D01*
G01*
X51700000Y-37225000D01*
G75*
G02*
X51750000Y-37175000I50000J0D01*
G01*
G37*
G36*
G01*
X51350000Y-37175000D02*
X51450000Y-37175000D01*
G75*
G02*
X51500000Y-37225000I0J-50000D01*
G01*
X51500000Y-38000000D01*
G75*
G02*
X51450000Y-38050000I-50000J0D01*
G01*
X51350000Y-38050000D01*
G75*
G02*
X51300000Y-38000000I0J50000D01*
G01*
X51300000Y-37225000D01*
G75*
G02*
X51350000Y-37175000I50000J0D01*
G01*
G37*
G36*
G01*
X50950000Y-37175000D02*
X51050000Y-37175000D01*
G75*
G02*
X51100000Y-37225000I0J-50000D01*
G01*
X51100000Y-38000000D01*
G75*
G02*
X51050000Y-38050000I-50000J0D01*
G01*
X50950000Y-38050000D01*
G75*
G02*
X50900000Y-38000000I0J50000D01*
G01*
X50900000Y-37225000D01*
G75*
G02*
X50950000Y-37175000I50000J0D01*
G01*
G37*
G36*
G01*
X50550000Y-37175000D02*
X50650000Y-37175000D01*
G75*
G02*
X50700000Y-37225000I0J-50000D01*
G01*
X50700000Y-38000000D01*
G75*
G02*
X50650000Y-38050000I-50000J0D01*
G01*
X50550000Y-38050000D01*
G75*
G02*
X50500000Y-38000000I0J50000D01*
G01*
X50500000Y-37225000D01*
G75*
G02*
X50550000Y-37175000I50000J0D01*
G01*
G37*
G36*
G01*
X50150000Y-37175000D02*
X50250000Y-37175000D01*
G75*
G02*
X50300000Y-37225000I0J-50000D01*
G01*
X50300000Y-38000000D01*
G75*
G02*
X50250000Y-38050000I-50000J0D01*
G01*
X50150000Y-38050000D01*
G75*
G02*
X50100000Y-38000000I0J50000D01*
G01*
X50100000Y-37225000D01*
G75*
G02*
X50150000Y-37175000I50000J0D01*
G01*
G37*
G36*
G01*
X49750000Y-37175000D02*
X49850000Y-37175000D01*
G75*
G02*
X49900000Y-37225000I0J-50000D01*
G01*
X49900000Y-38000000D01*
G75*
G02*
X49850000Y-38050000I-50000J0D01*
G01*
X49750000Y-38050000D01*
G75*
G02*
X49700000Y-38000000I0J50000D01*
G01*
X49700000Y-37225000D01*
G75*
G02*
X49750000Y-37175000I50000J0D01*
G01*
G37*
G36*
G01*
X49350000Y-37175000D02*
X49450000Y-37175000D01*
G75*
G02*
X49500000Y-37225000I0J-50000D01*
G01*
X49500000Y-38000000D01*
G75*
G02*
X49450000Y-38050000I-50000J0D01*
G01*
X49350000Y-38050000D01*
G75*
G02*
X49300000Y-38000000I0J50000D01*
G01*
X49300000Y-37225000D01*
G75*
G02*
X49350000Y-37175000I50000J0D01*
G01*
G37*
G36*
G01*
X48950000Y-37175000D02*
X49050000Y-37175000D01*
G75*
G02*
X49100000Y-37225000I0J-50000D01*
G01*
X49100000Y-38000000D01*
G75*
G02*
X49050000Y-38050000I-50000J0D01*
G01*
X48950000Y-38050000D01*
G75*
G02*
X48900000Y-38000000I0J50000D01*
G01*
X48900000Y-37225000D01*
G75*
G02*
X48950000Y-37175000I50000J0D01*
G01*
G37*
G36*
G01*
X48550000Y-37175000D02*
X48650000Y-37175000D01*
G75*
G02*
X48700000Y-37225000I0J-50000D01*
G01*
X48700000Y-38000000D01*
G75*
G02*
X48650000Y-38050000I-50000J0D01*
G01*
X48550000Y-38050000D01*
G75*
G02*
X48500000Y-38000000I0J50000D01*
G01*
X48500000Y-37225000D01*
G75*
G02*
X48550000Y-37175000I50000J0D01*
G01*
G37*
G36*
G01*
X48150000Y-37175000D02*
X48250000Y-37175000D01*
G75*
G02*
X48300000Y-37225000I0J-50000D01*
G01*
X48300000Y-38000000D01*
G75*
G02*
X48250000Y-38050000I-50000J0D01*
G01*
X48150000Y-38050000D01*
G75*
G02*
X48100000Y-38000000I0J50000D01*
G01*
X48100000Y-37225000D01*
G75*
G02*
X48150000Y-37175000I50000J0D01*
G01*
G37*
G36*
G01*
X47750000Y-37175000D02*
X47850000Y-37175000D01*
G75*
G02*
X47900000Y-37225000I0J-50000D01*
G01*
X47900000Y-38000000D01*
G75*
G02*
X47850000Y-38050000I-50000J0D01*
G01*
X47750000Y-38050000D01*
G75*
G02*
X47700000Y-38000000I0J50000D01*
G01*
X47700000Y-37225000D01*
G75*
G02*
X47750000Y-37175000I50000J0D01*
G01*
G37*
G36*
G01*
X47350000Y-37175000D02*
X47450000Y-37175000D01*
G75*
G02*
X47500000Y-37225000I0J-50000D01*
G01*
X47500000Y-38000000D01*
G75*
G02*
X47450000Y-38050000I-50000J0D01*
G01*
X47350000Y-38050000D01*
G75*
G02*
X47300000Y-38000000I0J50000D01*
G01*
X47300000Y-37225000D01*
G75*
G02*
X47350000Y-37175000I50000J0D01*
G01*
G37*
G36*
G01*
X46950000Y-37175000D02*
X47050000Y-37175000D01*
G75*
G02*
X47100000Y-37225000I0J-50000D01*
G01*
X47100000Y-38000000D01*
G75*
G02*
X47050000Y-38050000I-50000J0D01*
G01*
X46950000Y-38050000D01*
G75*
G02*
X46900000Y-38000000I0J50000D01*
G01*
X46900000Y-37225000D01*
G75*
G02*
X46950000Y-37175000I50000J0D01*
G01*
G37*
G36*
G01*
X46550000Y-37175000D02*
X46650000Y-37175000D01*
G75*
G02*
X46700000Y-37225000I0J-50000D01*
G01*
X46700000Y-38000000D01*
G75*
G02*
X46650000Y-38050000I-50000J0D01*
G01*
X46550000Y-38050000D01*
G75*
G02*
X46500000Y-38000000I0J50000D01*
G01*
X46500000Y-37225000D01*
G75*
G02*
X46550000Y-37175000I50000J0D01*
G01*
G37*
G36*
G01*
X45375000Y-38350000D02*
X46150000Y-38350000D01*
G75*
G02*
X46200000Y-38400000I0J-50000D01*
G01*
X46200000Y-38500000D01*
G75*
G02*
X46150000Y-38550000I-50000J0D01*
G01*
X45375000Y-38550000D01*
G75*
G02*
X45325000Y-38500000I0J50000D01*
G01*
X45325000Y-38400000D01*
G75*
G02*
X45375000Y-38350000I50000J0D01*
G01*
G37*
G36*
G01*
X45375000Y-38750000D02*
X46150000Y-38750000D01*
G75*
G02*
X46200000Y-38800000I0J-50000D01*
G01*
X46200000Y-38900000D01*
G75*
G02*
X46150000Y-38950000I-50000J0D01*
G01*
X45375000Y-38950000D01*
G75*
G02*
X45325000Y-38900000I0J50000D01*
G01*
X45325000Y-38800000D01*
G75*
G02*
X45375000Y-38750000I50000J0D01*
G01*
G37*
G36*
G01*
X45375000Y-39150000D02*
X46150000Y-39150000D01*
G75*
G02*
X46200000Y-39200000I0J-50000D01*
G01*
X46200000Y-39300000D01*
G75*
G02*
X46150000Y-39350000I-50000J0D01*
G01*
X45375000Y-39350000D01*
G75*
G02*
X45325000Y-39300000I0J50000D01*
G01*
X45325000Y-39200000D01*
G75*
G02*
X45375000Y-39150000I50000J0D01*
G01*
G37*
G36*
G01*
X45375000Y-39550000D02*
X46150000Y-39550000D01*
G75*
G02*
X46200000Y-39600000I0J-50000D01*
G01*
X46200000Y-39700000D01*
G75*
G02*
X46150000Y-39750000I-50000J0D01*
G01*
X45375000Y-39750000D01*
G75*
G02*
X45325000Y-39700000I0J50000D01*
G01*
X45325000Y-39600000D01*
G75*
G02*
X45375000Y-39550000I50000J0D01*
G01*
G37*
G36*
G01*
X45375000Y-39950000D02*
X46150000Y-39950000D01*
G75*
G02*
X46200000Y-40000000I0J-50000D01*
G01*
X46200000Y-40100000D01*
G75*
G02*
X46150000Y-40150000I-50000J0D01*
G01*
X45375000Y-40150000D01*
G75*
G02*
X45325000Y-40100000I0J50000D01*
G01*
X45325000Y-40000000D01*
G75*
G02*
X45375000Y-39950000I50000J0D01*
G01*
G37*
G36*
G01*
X45375000Y-40350000D02*
X46150000Y-40350000D01*
G75*
G02*
X46200000Y-40400000I0J-50000D01*
G01*
X46200000Y-40500000D01*
G75*
G02*
X46150000Y-40550000I-50000J0D01*
G01*
X45375000Y-40550000D01*
G75*
G02*
X45325000Y-40500000I0J50000D01*
G01*
X45325000Y-40400000D01*
G75*
G02*
X45375000Y-40350000I50000J0D01*
G01*
G37*
G36*
G01*
X45375000Y-40750000D02*
X46150000Y-40750000D01*
G75*
G02*
X46200000Y-40800000I0J-50000D01*
G01*
X46200000Y-40900000D01*
G75*
G02*
X46150000Y-40950000I-50000J0D01*
G01*
X45375000Y-40950000D01*
G75*
G02*
X45325000Y-40900000I0J50000D01*
G01*
X45325000Y-40800000D01*
G75*
G02*
X45375000Y-40750000I50000J0D01*
G01*
G37*
G36*
G01*
X45375000Y-41150000D02*
X46150000Y-41150000D01*
G75*
G02*
X46200000Y-41200000I0J-50000D01*
G01*
X46200000Y-41300000D01*
G75*
G02*
X46150000Y-41350000I-50000J0D01*
G01*
X45375000Y-41350000D01*
G75*
G02*
X45325000Y-41300000I0J50000D01*
G01*
X45325000Y-41200000D01*
G75*
G02*
X45375000Y-41150000I50000J0D01*
G01*
G37*
G36*
G01*
X45375000Y-41550000D02*
X46150000Y-41550000D01*
G75*
G02*
X46200000Y-41600000I0J-50000D01*
G01*
X46200000Y-41700000D01*
G75*
G02*
X46150000Y-41750000I-50000J0D01*
G01*
X45375000Y-41750000D01*
G75*
G02*
X45325000Y-41700000I0J50000D01*
G01*
X45325000Y-41600000D01*
G75*
G02*
X45375000Y-41550000I50000J0D01*
G01*
G37*
G36*
G01*
X45375000Y-41950000D02*
X46150000Y-41950000D01*
G75*
G02*
X46200000Y-42000000I0J-50000D01*
G01*
X46200000Y-42100000D01*
G75*
G02*
X46150000Y-42150000I-50000J0D01*
G01*
X45375000Y-42150000D01*
G75*
G02*
X45325000Y-42100000I0J50000D01*
G01*
X45325000Y-42000000D01*
G75*
G02*
X45375000Y-41950000I50000J0D01*
G01*
G37*
G36*
G01*
X45375000Y-42350000D02*
X46150000Y-42350000D01*
G75*
G02*
X46200000Y-42400000I0J-50000D01*
G01*
X46200000Y-42500000D01*
G75*
G02*
X46150000Y-42550000I-50000J0D01*
G01*
X45375000Y-42550000D01*
G75*
G02*
X45325000Y-42500000I0J50000D01*
G01*
X45325000Y-42400000D01*
G75*
G02*
X45375000Y-42350000I50000J0D01*
G01*
G37*
G36*
G01*
X45375000Y-42750000D02*
X46150000Y-42750000D01*
G75*
G02*
X46200000Y-42800000I0J-50000D01*
G01*
X46200000Y-42900000D01*
G75*
G02*
X46150000Y-42950000I-50000J0D01*
G01*
X45375000Y-42950000D01*
G75*
G02*
X45325000Y-42900000I0J50000D01*
G01*
X45325000Y-42800000D01*
G75*
G02*
X45375000Y-42750000I50000J0D01*
G01*
G37*
G36*
G01*
X45375000Y-43150000D02*
X46150000Y-43150000D01*
G75*
G02*
X46200000Y-43200000I0J-50000D01*
G01*
X46200000Y-43300000D01*
G75*
G02*
X46150000Y-43350000I-50000J0D01*
G01*
X45375000Y-43350000D01*
G75*
G02*
X45325000Y-43300000I0J50000D01*
G01*
X45325000Y-43200000D01*
G75*
G02*
X45375000Y-43150000I50000J0D01*
G01*
G37*
G36*
G01*
X45375000Y-43550000D02*
X46150000Y-43550000D01*
G75*
G02*
X46200000Y-43600000I0J-50000D01*
G01*
X46200000Y-43700000D01*
G75*
G02*
X46150000Y-43750000I-50000J0D01*
G01*
X45375000Y-43750000D01*
G75*
G02*
X45325000Y-43700000I0J50000D01*
G01*
X45325000Y-43600000D01*
G75*
G02*
X45375000Y-43550000I50000J0D01*
G01*
G37*
G36*
G01*
X46550000Y-44050000D02*
X46650000Y-44050000D01*
G75*
G02*
X46700000Y-44100000I0J-50000D01*
G01*
X46700000Y-44875000D01*
G75*
G02*
X46650000Y-44925000I-50000J0D01*
G01*
X46550000Y-44925000D01*
G75*
G02*
X46500000Y-44875000I0J50000D01*
G01*
X46500000Y-44100000D01*
G75*
G02*
X46550000Y-44050000I50000J0D01*
G01*
G37*
G36*
G01*
X46950000Y-44050000D02*
X47050000Y-44050000D01*
G75*
G02*
X47100000Y-44100000I0J-50000D01*
G01*
X47100000Y-44875000D01*
G75*
G02*
X47050000Y-44925000I-50000J0D01*
G01*
X46950000Y-44925000D01*
G75*
G02*
X46900000Y-44875000I0J50000D01*
G01*
X46900000Y-44100000D01*
G75*
G02*
X46950000Y-44050000I50000J0D01*
G01*
G37*
G36*
G01*
X47350000Y-44050000D02*
X47450000Y-44050000D01*
G75*
G02*
X47500000Y-44100000I0J-50000D01*
G01*
X47500000Y-44875000D01*
G75*
G02*
X47450000Y-44925000I-50000J0D01*
G01*
X47350000Y-44925000D01*
G75*
G02*
X47300000Y-44875000I0J50000D01*
G01*
X47300000Y-44100000D01*
G75*
G02*
X47350000Y-44050000I50000J0D01*
G01*
G37*
G36*
G01*
X47750000Y-44050000D02*
X47850000Y-44050000D01*
G75*
G02*
X47900000Y-44100000I0J-50000D01*
G01*
X47900000Y-44875000D01*
G75*
G02*
X47850000Y-44925000I-50000J0D01*
G01*
X47750000Y-44925000D01*
G75*
G02*
X47700000Y-44875000I0J50000D01*
G01*
X47700000Y-44100000D01*
G75*
G02*
X47750000Y-44050000I50000J0D01*
G01*
G37*
G36*
G01*
X48150000Y-44050000D02*
X48250000Y-44050000D01*
G75*
G02*
X48300000Y-44100000I0J-50000D01*
G01*
X48300000Y-44875000D01*
G75*
G02*
X48250000Y-44925000I-50000J0D01*
G01*
X48150000Y-44925000D01*
G75*
G02*
X48100000Y-44875000I0J50000D01*
G01*
X48100000Y-44100000D01*
G75*
G02*
X48150000Y-44050000I50000J0D01*
G01*
G37*
G36*
G01*
X48550000Y-44050000D02*
X48650000Y-44050000D01*
G75*
G02*
X48700000Y-44100000I0J-50000D01*
G01*
X48700000Y-44875000D01*
G75*
G02*
X48650000Y-44925000I-50000J0D01*
G01*
X48550000Y-44925000D01*
G75*
G02*
X48500000Y-44875000I0J50000D01*
G01*
X48500000Y-44100000D01*
G75*
G02*
X48550000Y-44050000I50000J0D01*
G01*
G37*
G36*
G01*
X48950000Y-44050000D02*
X49050000Y-44050000D01*
G75*
G02*
X49100000Y-44100000I0J-50000D01*
G01*
X49100000Y-44875000D01*
G75*
G02*
X49050000Y-44925000I-50000J0D01*
G01*
X48950000Y-44925000D01*
G75*
G02*
X48900000Y-44875000I0J50000D01*
G01*
X48900000Y-44100000D01*
G75*
G02*
X48950000Y-44050000I50000J0D01*
G01*
G37*
G36*
G01*
X49350000Y-44050000D02*
X49450000Y-44050000D01*
G75*
G02*
X49500000Y-44100000I0J-50000D01*
G01*
X49500000Y-44875000D01*
G75*
G02*
X49450000Y-44925000I-50000J0D01*
G01*
X49350000Y-44925000D01*
G75*
G02*
X49300000Y-44875000I0J50000D01*
G01*
X49300000Y-44100000D01*
G75*
G02*
X49350000Y-44050000I50000J0D01*
G01*
G37*
G36*
G01*
X49750000Y-44050000D02*
X49850000Y-44050000D01*
G75*
G02*
X49900000Y-44100000I0J-50000D01*
G01*
X49900000Y-44875000D01*
G75*
G02*
X49850000Y-44925000I-50000J0D01*
G01*
X49750000Y-44925000D01*
G75*
G02*
X49700000Y-44875000I0J50000D01*
G01*
X49700000Y-44100000D01*
G75*
G02*
X49750000Y-44050000I50000J0D01*
G01*
G37*
G36*
G01*
X50150000Y-44050000D02*
X50250000Y-44050000D01*
G75*
G02*
X50300000Y-44100000I0J-50000D01*
G01*
X50300000Y-44875000D01*
G75*
G02*
X50250000Y-44925000I-50000J0D01*
G01*
X50150000Y-44925000D01*
G75*
G02*
X50100000Y-44875000I0J50000D01*
G01*
X50100000Y-44100000D01*
G75*
G02*
X50150000Y-44050000I50000J0D01*
G01*
G37*
G36*
G01*
X50550000Y-44050000D02*
X50650000Y-44050000D01*
G75*
G02*
X50700000Y-44100000I0J-50000D01*
G01*
X50700000Y-44875000D01*
G75*
G02*
X50650000Y-44925000I-50000J0D01*
G01*
X50550000Y-44925000D01*
G75*
G02*
X50500000Y-44875000I0J50000D01*
G01*
X50500000Y-44100000D01*
G75*
G02*
X50550000Y-44050000I50000J0D01*
G01*
G37*
G36*
G01*
X50950000Y-44050000D02*
X51050000Y-44050000D01*
G75*
G02*
X51100000Y-44100000I0J-50000D01*
G01*
X51100000Y-44875000D01*
G75*
G02*
X51050000Y-44925000I-50000J0D01*
G01*
X50950000Y-44925000D01*
G75*
G02*
X50900000Y-44875000I0J50000D01*
G01*
X50900000Y-44100000D01*
G75*
G02*
X50950000Y-44050000I50000J0D01*
G01*
G37*
G36*
G01*
X51350000Y-44050000D02*
X51450000Y-44050000D01*
G75*
G02*
X51500000Y-44100000I0J-50000D01*
G01*
X51500000Y-44875000D01*
G75*
G02*
X51450000Y-44925000I-50000J0D01*
G01*
X51350000Y-44925000D01*
G75*
G02*
X51300000Y-44875000I0J50000D01*
G01*
X51300000Y-44100000D01*
G75*
G02*
X51350000Y-44050000I50000J0D01*
G01*
G37*
G36*
G01*
X51750000Y-44050000D02*
X51850000Y-44050000D01*
G75*
G02*
X51900000Y-44100000I0J-50000D01*
G01*
X51900000Y-44875000D01*
G75*
G02*
X51850000Y-44925000I-50000J0D01*
G01*
X51750000Y-44925000D01*
G75*
G02*
X51700000Y-44875000I0J50000D01*
G01*
X51700000Y-44100000D01*
G75*
G02*
X51750000Y-44050000I50000J0D01*
G01*
G37*
G36*
G01*
X52250000Y-43550000D02*
X53025000Y-43550000D01*
G75*
G02*
X53075000Y-43600000I0J-50000D01*
G01*
X53075000Y-43700000D01*
G75*
G02*
X53025000Y-43750000I-50000J0D01*
G01*
X52250000Y-43750000D01*
G75*
G02*
X52200000Y-43700000I0J50000D01*
G01*
X52200000Y-43600000D01*
G75*
G02*
X52250000Y-43550000I50000J0D01*
G01*
G37*
G36*
G01*
X52250000Y-43150000D02*
X53025000Y-43150000D01*
G75*
G02*
X53075000Y-43200000I0J-50000D01*
G01*
X53075000Y-43300000D01*
G75*
G02*
X53025000Y-43350000I-50000J0D01*
G01*
X52250000Y-43350000D01*
G75*
G02*
X52200000Y-43300000I0J50000D01*
G01*
X52200000Y-43200000D01*
G75*
G02*
X52250000Y-43150000I50000J0D01*
G01*
G37*
G36*
G01*
X52250000Y-42750000D02*
X53025000Y-42750000D01*
G75*
G02*
X53075000Y-42800000I0J-50000D01*
G01*
X53075000Y-42900000D01*
G75*
G02*
X53025000Y-42950000I-50000J0D01*
G01*
X52250000Y-42950000D01*
G75*
G02*
X52200000Y-42900000I0J50000D01*
G01*
X52200000Y-42800000D01*
G75*
G02*
X52250000Y-42750000I50000J0D01*
G01*
G37*
G36*
G01*
X52250000Y-42350000D02*
X53025000Y-42350000D01*
G75*
G02*
X53075000Y-42400000I0J-50000D01*
G01*
X53075000Y-42500000D01*
G75*
G02*
X53025000Y-42550000I-50000J0D01*
G01*
X52250000Y-42550000D01*
G75*
G02*
X52200000Y-42500000I0J50000D01*
G01*
X52200000Y-42400000D01*
G75*
G02*
X52250000Y-42350000I50000J0D01*
G01*
G37*
G36*
G01*
X52250000Y-41950000D02*
X53025000Y-41950000D01*
G75*
G02*
X53075000Y-42000000I0J-50000D01*
G01*
X53075000Y-42100000D01*
G75*
G02*
X53025000Y-42150000I-50000J0D01*
G01*
X52250000Y-42150000D01*
G75*
G02*
X52200000Y-42100000I0J50000D01*
G01*
X52200000Y-42000000D01*
G75*
G02*
X52250000Y-41950000I50000J0D01*
G01*
G37*
G36*
G01*
X52250000Y-41550000D02*
X53025000Y-41550000D01*
G75*
G02*
X53075000Y-41600000I0J-50000D01*
G01*
X53075000Y-41700000D01*
G75*
G02*
X53025000Y-41750000I-50000J0D01*
G01*
X52250000Y-41750000D01*
G75*
G02*
X52200000Y-41700000I0J50000D01*
G01*
X52200000Y-41600000D01*
G75*
G02*
X52250000Y-41550000I50000J0D01*
G01*
G37*
G36*
G01*
X52250000Y-41150000D02*
X53025000Y-41150000D01*
G75*
G02*
X53075000Y-41200000I0J-50000D01*
G01*
X53075000Y-41300000D01*
G75*
G02*
X53025000Y-41350000I-50000J0D01*
G01*
X52250000Y-41350000D01*
G75*
G02*
X52200000Y-41300000I0J50000D01*
G01*
X52200000Y-41200000D01*
G75*
G02*
X52250000Y-41150000I50000J0D01*
G01*
G37*
G36*
G01*
X52250000Y-40750000D02*
X53025000Y-40750000D01*
G75*
G02*
X53075000Y-40800000I0J-50000D01*
G01*
X53075000Y-40900000D01*
G75*
G02*
X53025000Y-40950000I-50000J0D01*
G01*
X52250000Y-40950000D01*
G75*
G02*
X52200000Y-40900000I0J50000D01*
G01*
X52200000Y-40800000D01*
G75*
G02*
X52250000Y-40750000I50000J0D01*
G01*
G37*
G36*
G01*
X52250000Y-40350000D02*
X53025000Y-40350000D01*
G75*
G02*
X53075000Y-40400000I0J-50000D01*
G01*
X53075000Y-40500000D01*
G75*
G02*
X53025000Y-40550000I-50000J0D01*
G01*
X52250000Y-40550000D01*
G75*
G02*
X52200000Y-40500000I0J50000D01*
G01*
X52200000Y-40400000D01*
G75*
G02*
X52250000Y-40350000I50000J0D01*
G01*
G37*
G36*
G01*
X52250000Y-39950000D02*
X53025000Y-39950000D01*
G75*
G02*
X53075000Y-40000000I0J-50000D01*
G01*
X53075000Y-40100000D01*
G75*
G02*
X53025000Y-40150000I-50000J0D01*
G01*
X52250000Y-40150000D01*
G75*
G02*
X52200000Y-40100000I0J50000D01*
G01*
X52200000Y-40000000D01*
G75*
G02*
X52250000Y-39950000I50000J0D01*
G01*
G37*
G36*
G01*
X52250000Y-39550000D02*
X53025000Y-39550000D01*
G75*
G02*
X53075000Y-39600000I0J-50000D01*
G01*
X53075000Y-39700000D01*
G75*
G02*
X53025000Y-39750000I-50000J0D01*
G01*
X52250000Y-39750000D01*
G75*
G02*
X52200000Y-39700000I0J50000D01*
G01*
X52200000Y-39600000D01*
G75*
G02*
X52250000Y-39550000I50000J0D01*
G01*
G37*
G36*
G01*
X52250000Y-39150000D02*
X53025000Y-39150000D01*
G75*
G02*
X53075000Y-39200000I0J-50000D01*
G01*
X53075000Y-39300000D01*
G75*
G02*
X53025000Y-39350000I-50000J0D01*
G01*
X52250000Y-39350000D01*
G75*
G02*
X52200000Y-39300000I0J50000D01*
G01*
X52200000Y-39200000D01*
G75*
G02*
X52250000Y-39150000I50000J0D01*
G01*
G37*
G36*
G01*
X52250000Y-38750000D02*
X53025000Y-38750000D01*
G75*
G02*
X53075000Y-38800000I0J-50000D01*
G01*
X53075000Y-38900000D01*
G75*
G02*
X53025000Y-38950000I-50000J0D01*
G01*
X52250000Y-38950000D01*
G75*
G02*
X52200000Y-38900000I0J50000D01*
G01*
X52200000Y-38800000D01*
G75*
G02*
X52250000Y-38750000I50000J0D01*
G01*
G37*
G36*
G01*
X52250000Y-38350000D02*
X53025000Y-38350000D01*
G75*
G02*
X53075000Y-38400000I0J-50000D01*
G01*
X53075000Y-38500000D01*
G75*
G02*
X53025000Y-38550000I-50000J0D01*
G01*
X52250000Y-38550000D01*
G75*
G02*
X52200000Y-38500000I0J50000D01*
G01*
X52200000Y-38400000D01*
G75*
G02*
X52250000Y-38350000I50000J0D01*
G01*
G37*
G36*
G01*
X38490000Y-44620000D02*
X38860000Y-44620000D01*
G75*
G02*
X38995000Y-44755000I0J-135000D01*
G01*
X38995000Y-45025000D01*
G75*
G02*
X38860000Y-45160000I-135000J0D01*
G01*
X38490000Y-45160000D01*
G75*
G02*
X38355000Y-45025000I0J135000D01*
G01*
X38355000Y-44755000D01*
G75*
G02*
X38490000Y-44620000I135000J0D01*
G01*
G37*
G36*
G01*
X38490000Y-45640000D02*
X38860000Y-45640000D01*
G75*
G02*
X38995000Y-45775000I0J-135000D01*
G01*
X38995000Y-46045000D01*
G75*
G02*
X38860000Y-46180000I-135000J0D01*
G01*
X38490000Y-46180000D01*
G75*
G02*
X38355000Y-46045000I0J135000D01*
G01*
X38355000Y-45775000D01*
G75*
G02*
X38490000Y-45640000I135000J0D01*
G01*
G37*
G36*
G01*
X41350000Y-35185000D02*
X41690000Y-35185000D01*
G75*
G02*
X41830000Y-35325000I0J-140000D01*
G01*
X41830000Y-35605000D01*
G75*
G02*
X41690000Y-35745000I-140000J0D01*
G01*
X41350000Y-35745000D01*
G75*
G02*
X41210000Y-35605000I0J140000D01*
G01*
X41210000Y-35325000D01*
G75*
G02*
X41350000Y-35185000I140000J0D01*
G01*
G37*
G36*
G01*
X41350000Y-36145000D02*
X41690000Y-36145000D01*
G75*
G02*
X41830000Y-36285000I0J-140000D01*
G01*
X41830000Y-36565000D01*
G75*
G02*
X41690000Y-36705000I-140000J0D01*
G01*
X41350000Y-36705000D01*
G75*
G02*
X41210000Y-36565000I0J140000D01*
G01*
X41210000Y-36285000D01*
G75*
G02*
X41350000Y-36145000I140000J0D01*
G01*
G37*
D16*
X42000000Y-48475000D03*
X38650000Y-51525000D03*
X38650000Y-48475000D03*
X42000000Y-51525000D03*
D17*
X46625000Y-52280000D03*
X46625000Y-47720000D03*
G36*
G01*
X49030000Y-51240000D02*
X49370000Y-51240000D01*
G75*
G02*
X49510000Y-51380000I0J-140000D01*
G01*
X49510000Y-51660000D01*
G75*
G02*
X49370000Y-51800000I-140000J0D01*
G01*
X49030000Y-51800000D01*
G75*
G02*
X48890000Y-51660000I0J140000D01*
G01*
X48890000Y-51380000D01*
G75*
G02*
X49030000Y-51240000I140000J0D01*
G01*
G37*
G36*
G01*
X49030000Y-52200000D02*
X49370000Y-52200000D01*
G75*
G02*
X49510000Y-52340000I0J-140000D01*
G01*
X49510000Y-52620000D01*
G75*
G02*
X49370000Y-52760000I-140000J0D01*
G01*
X49030000Y-52760000D01*
G75*
G02*
X48890000Y-52620000I0J140000D01*
G01*
X48890000Y-52340000D01*
G75*
G02*
X49030000Y-52200000I140000J0D01*
G01*
G37*
G36*
G01*
X40150000Y-46180000D02*
X39780000Y-46180000D01*
G75*
G02*
X39645000Y-46045000I0J135000D01*
G01*
X39645000Y-45775000D01*
G75*
G02*
X39780000Y-45640000I135000J0D01*
G01*
X40150000Y-45640000D01*
G75*
G02*
X40285000Y-45775000I0J-135000D01*
G01*
X40285000Y-46045000D01*
G75*
G02*
X40150000Y-46180000I-135000J0D01*
G01*
G37*
G36*
G01*
X40150000Y-45160000D02*
X39780000Y-45160000D01*
G75*
G02*
X39645000Y-45025000I0J135000D01*
G01*
X39645000Y-44755000D01*
G75*
G02*
X39780000Y-44620000I135000J0D01*
G01*
X40150000Y-44620000D01*
G75*
G02*
X40285000Y-44755000I0J-135000D01*
G01*
X40285000Y-45025000D01*
G75*
G02*
X40150000Y-45160000I-135000J0D01*
G01*
G37*
G36*
G01*
X56060000Y-37430000D02*
X56060000Y-37770000D01*
G75*
G02*
X55920000Y-37910000I-140000J0D01*
G01*
X55640000Y-37910000D01*
G75*
G02*
X55500000Y-37770000I0J140000D01*
G01*
X55500000Y-37430000D01*
G75*
G02*
X55640000Y-37290000I140000J0D01*
G01*
X55920000Y-37290000D01*
G75*
G02*
X56060000Y-37430000I0J-140000D01*
G01*
G37*
G36*
G01*
X55100000Y-37430000D02*
X55100000Y-37770000D01*
G75*
G02*
X54960000Y-37910000I-140000J0D01*
G01*
X54680000Y-37910000D01*
G75*
G02*
X54540000Y-37770000I0J140000D01*
G01*
X54540000Y-37430000D01*
G75*
G02*
X54680000Y-37290000I140000J0D01*
G01*
X54960000Y-37290000D01*
G75*
G02*
X55100000Y-37430000I0J-140000D01*
G01*
G37*
G36*
G01*
X40380000Y-38170000D02*
X40380000Y-37830000D01*
G75*
G02*
X40520000Y-37690000I140000J0D01*
G01*
X40800000Y-37690000D01*
G75*
G02*
X40940000Y-37830000I0J-140000D01*
G01*
X40940000Y-38170000D01*
G75*
G02*
X40800000Y-38310000I-140000J0D01*
G01*
X40520000Y-38310000D01*
G75*
G02*
X40380000Y-38170000I0J140000D01*
G01*
G37*
G36*
G01*
X41340000Y-38170000D02*
X41340000Y-37830000D01*
G75*
G02*
X41480000Y-37690000I140000J0D01*
G01*
X41760000Y-37690000D01*
G75*
G02*
X41900000Y-37830000I0J-140000D01*
G01*
X41900000Y-38170000D01*
G75*
G02*
X41760000Y-38310000I-140000J0D01*
G01*
X41480000Y-38310000D01*
G75*
G02*
X41340000Y-38170000I0J140000D01*
G01*
G37*
G36*
G01*
X55770000Y-44960000D02*
X55430000Y-44960000D01*
G75*
G02*
X55290000Y-44820000I0J140000D01*
G01*
X55290000Y-44540000D01*
G75*
G02*
X55430000Y-44400000I140000J0D01*
G01*
X55770000Y-44400000D01*
G75*
G02*
X55910000Y-44540000I0J-140000D01*
G01*
X55910000Y-44820000D01*
G75*
G02*
X55770000Y-44960000I-140000J0D01*
G01*
G37*
G36*
G01*
X55770000Y-44000000D02*
X55430000Y-44000000D01*
G75*
G02*
X55290000Y-43860000I0J140000D01*
G01*
X55290000Y-43580000D01*
G75*
G02*
X55430000Y-43440000I140000J0D01*
G01*
X55770000Y-43440000D01*
G75*
G02*
X55910000Y-43580000I0J-140000D01*
G01*
X55910000Y-43860000D01*
G75*
G02*
X55770000Y-44000000I-140000J0D01*
G01*
G37*
G36*
G01*
X56060000Y-41830000D02*
X56060000Y-42170000D01*
G75*
G02*
X55920000Y-42310000I-140000J0D01*
G01*
X55640000Y-42310000D01*
G75*
G02*
X55500000Y-42170000I0J140000D01*
G01*
X55500000Y-41830000D01*
G75*
G02*
X55640000Y-41690000I140000J0D01*
G01*
X55920000Y-41690000D01*
G75*
G02*
X56060000Y-41830000I0J-140000D01*
G01*
G37*
G36*
G01*
X55100000Y-41830000D02*
X55100000Y-42170000D01*
G75*
G02*
X54960000Y-42310000I-140000J0D01*
G01*
X54680000Y-42310000D01*
G75*
G02*
X54540000Y-42170000I0J140000D01*
G01*
X54540000Y-41830000D01*
G75*
G02*
X54680000Y-41690000I140000J0D01*
G01*
X54960000Y-41690000D01*
G75*
G02*
X55100000Y-41830000I0J-140000D01*
G01*
G37*
G36*
G01*
X42900000Y-38170000D02*
X42900000Y-37830000D01*
G75*
G02*
X43040000Y-37690000I140000J0D01*
G01*
X43320000Y-37690000D01*
G75*
G02*
X43460000Y-37830000I0J-140000D01*
G01*
X43460000Y-38170000D01*
G75*
G02*
X43320000Y-38310000I-140000J0D01*
G01*
X43040000Y-38310000D01*
G75*
G02*
X42900000Y-38170000I0J140000D01*
G01*
G37*
G36*
G01*
X43860000Y-38170000D02*
X43860000Y-37830000D01*
G75*
G02*
X44000000Y-37690000I140000J0D01*
G01*
X44280000Y-37690000D01*
G75*
G02*
X44420000Y-37830000I0J-140000D01*
G01*
X44420000Y-38170000D01*
G75*
G02*
X44280000Y-38310000I-140000J0D01*
G01*
X44000000Y-38310000D01*
G75*
G02*
X43860000Y-38170000I0J140000D01*
G01*
G37*
G36*
G01*
X41195000Y-44640000D02*
X41535000Y-44640000D01*
G75*
G02*
X41675000Y-44780000I0J-140000D01*
G01*
X41675000Y-45060000D01*
G75*
G02*
X41535000Y-45200000I-140000J0D01*
G01*
X41195000Y-45200000D01*
G75*
G02*
X41055000Y-45060000I0J140000D01*
G01*
X41055000Y-44780000D01*
G75*
G02*
X41195000Y-44640000I140000J0D01*
G01*
G37*
G36*
G01*
X41195000Y-45600000D02*
X41535000Y-45600000D01*
G75*
G02*
X41675000Y-45740000I0J-140000D01*
G01*
X41675000Y-46020000D01*
G75*
G02*
X41535000Y-46160000I-140000J0D01*
G01*
X41195000Y-46160000D01*
G75*
G02*
X41055000Y-46020000I0J140000D01*
G01*
X41055000Y-45740000D01*
G75*
G02*
X41195000Y-45600000I140000J0D01*
G01*
G37*
G36*
G01*
X62785000Y-40980000D02*
X62415000Y-40980000D01*
G75*
G02*
X62280000Y-40845000I0J135000D01*
G01*
X62280000Y-40575000D01*
G75*
G02*
X62415000Y-40440000I135000J0D01*
G01*
X62785000Y-40440000D01*
G75*
G02*
X62920000Y-40575000I0J-135000D01*
G01*
X62920000Y-40845000D01*
G75*
G02*
X62785000Y-40980000I-135000J0D01*
G01*
G37*
G36*
G01*
X62785000Y-39960000D02*
X62415000Y-39960000D01*
G75*
G02*
X62280000Y-39825000I0J135000D01*
G01*
X62280000Y-39555000D01*
G75*
G02*
X62415000Y-39420000I135000J0D01*
G01*
X62785000Y-39420000D01*
G75*
G02*
X62920000Y-39555000I0J-135000D01*
G01*
X62920000Y-39825000D01*
G75*
G02*
X62785000Y-39960000I-135000J0D01*
G01*
G37*
D18*
X52550000Y-32000000D03*
X47450000Y-32000000D03*
G36*
G01*
X59325000Y-41200000D02*
X59325000Y-40900000D01*
G75*
G02*
X59475000Y-40750000I150000J0D01*
G01*
X60650000Y-40750000D01*
G75*
G02*
X60800000Y-40900000I0J-150000D01*
G01*
X60800000Y-41200000D01*
G75*
G02*
X60650000Y-41350000I-150000J0D01*
G01*
X59475000Y-41350000D01*
G75*
G02*
X59325000Y-41200000I0J150000D01*
G01*
G37*
G36*
G01*
X59325000Y-43100000D02*
X59325000Y-42800000D01*
G75*
G02*
X59475000Y-42650000I150000J0D01*
G01*
X60650000Y-42650000D01*
G75*
G02*
X60800000Y-42800000I0J-150000D01*
G01*
X60800000Y-43100000D01*
G75*
G02*
X60650000Y-43250000I-150000J0D01*
G01*
X59475000Y-43250000D01*
G75*
G02*
X59325000Y-43100000I0J150000D01*
G01*
G37*
G36*
G01*
X61200000Y-42150000D02*
X61200000Y-41850000D01*
G75*
G02*
X61350000Y-41700000I150000J0D01*
G01*
X62525000Y-41700000D01*
G75*
G02*
X62675000Y-41850000I0J-150000D01*
G01*
X62675000Y-42150000D01*
G75*
G02*
X62525000Y-42300000I-150000J0D01*
G01*
X61350000Y-42300000D01*
G75*
G02*
X61200000Y-42150000I0J150000D01*
G01*
G37*
G36*
G01*
X52430000Y-34640000D02*
X52770000Y-34640000D01*
G75*
G02*
X52910000Y-34780000I0J-140000D01*
G01*
X52910000Y-35060000D01*
G75*
G02*
X52770000Y-35200000I-140000J0D01*
G01*
X52430000Y-35200000D01*
G75*
G02*
X52290000Y-35060000I0J140000D01*
G01*
X52290000Y-34780000D01*
G75*
G02*
X52430000Y-34640000I140000J0D01*
G01*
G37*
G36*
G01*
X52430000Y-35600000D02*
X52770000Y-35600000D01*
G75*
G02*
X52910000Y-35740000I0J-140000D01*
G01*
X52910000Y-36020000D01*
G75*
G02*
X52770000Y-36160000I-140000J0D01*
G01*
X52430000Y-36160000D01*
G75*
G02*
X52290000Y-36020000I0J140000D01*
G01*
X52290000Y-35740000D01*
G75*
G02*
X52430000Y-35600000I140000J0D01*
G01*
G37*
G36*
G01*
X54615000Y-32620000D02*
X54985000Y-32620000D01*
G75*
G02*
X55120000Y-32755000I0J-135000D01*
G01*
X55120000Y-33025000D01*
G75*
G02*
X54985000Y-33160000I-135000J0D01*
G01*
X54615000Y-33160000D01*
G75*
G02*
X54480000Y-33025000I0J135000D01*
G01*
X54480000Y-32755000D01*
G75*
G02*
X54615000Y-32620000I135000J0D01*
G01*
G37*
G36*
G01*
X54615000Y-33640000D02*
X54985000Y-33640000D01*
G75*
G02*
X55120000Y-33775000I0J-135000D01*
G01*
X55120000Y-34045000D01*
G75*
G02*
X54985000Y-34180000I-135000J0D01*
G01*
X54615000Y-34180000D01*
G75*
G02*
X54480000Y-34045000I0J135000D01*
G01*
X54480000Y-33775000D01*
G75*
G02*
X54615000Y-33640000I135000J0D01*
G01*
G37*
M02*
