G04 #@! TF.GenerationSoftware,KiCad,Pcbnew,6.0.5-a6ca702e91~116~ubuntu22.04.1*
G04 #@! TF.CreationDate,2022-05-26T03:30:37+02:00*
G04 #@! TF.ProjectId,driver-board,64726976-6572-42d6-926f-6172642e6b69,7ebd5c4*
G04 #@! TF.SameCoordinates,Original*
G04 #@! TF.FileFunction,Paste,Bot*
G04 #@! TF.FilePolarity,Positive*
%FSLAX46Y46*%
G04 Gerber Fmt 4.6, Leading zero omitted, Abs format (unit mm)*
G04 Created by KiCad (PCBNEW 6.0.5-a6ca702e91~116~ubuntu22.04.1) date 2022-05-26 03:30:37*
%MOMM*%
%LPD*%
G01*
G04 APERTURE LIST*
%ADD10R,0.300000X0.870000*%
G04 APERTURE END LIST*
G36*
G01*
X53630000Y-51760000D02*
X53970000Y-51760000D01*
G75*
G02*
X54110000Y-51900000I0J-140000D01*
G01*
X54110000Y-52180000D01*
G75*
G02*
X53970000Y-52320000I-140000J0D01*
G01*
X53630000Y-52320000D01*
G75*
G02*
X53490000Y-52180000I0J140000D01*
G01*
X53490000Y-51900000D01*
G75*
G02*
X53630000Y-51760000I140000J0D01*
G01*
G37*
G36*
G01*
X53630000Y-52720000D02*
X53970000Y-52720000D01*
G75*
G02*
X54110000Y-52860000I0J-140000D01*
G01*
X54110000Y-53140000D01*
G75*
G02*
X53970000Y-53280000I-140000J0D01*
G01*
X53630000Y-53280000D01*
G75*
G02*
X53490000Y-53140000I0J140000D01*
G01*
X53490000Y-52860000D01*
G75*
G02*
X53630000Y-52720000I140000J0D01*
G01*
G37*
G36*
G01*
X52055000Y-53450000D02*
X51755000Y-53450000D01*
G75*
G02*
X51605000Y-53300000I0J150000D01*
G01*
X51605000Y-51650000D01*
G75*
G02*
X51755000Y-51500000I150000J0D01*
G01*
X52055000Y-51500000D01*
G75*
G02*
X52205000Y-51650000I0J-150000D01*
G01*
X52205000Y-53300000D01*
G75*
G02*
X52055000Y-53450000I-150000J0D01*
G01*
G37*
G36*
G01*
X50785000Y-53450000D02*
X50485000Y-53450000D01*
G75*
G02*
X50335000Y-53300000I0J150000D01*
G01*
X50335000Y-51650000D01*
G75*
G02*
X50485000Y-51500000I150000J0D01*
G01*
X50785000Y-51500000D01*
G75*
G02*
X50935000Y-51650000I0J-150000D01*
G01*
X50935000Y-53300000D01*
G75*
G02*
X50785000Y-53450000I-150000J0D01*
G01*
G37*
G36*
G01*
X49515000Y-53450000D02*
X49215000Y-53450000D01*
G75*
G02*
X49065000Y-53300000I0J150000D01*
G01*
X49065000Y-51650000D01*
G75*
G02*
X49215000Y-51500000I150000J0D01*
G01*
X49515000Y-51500000D01*
G75*
G02*
X49665000Y-51650000I0J-150000D01*
G01*
X49665000Y-53300000D01*
G75*
G02*
X49515000Y-53450000I-150000J0D01*
G01*
G37*
G36*
G01*
X48245000Y-53450000D02*
X47945000Y-53450000D01*
G75*
G02*
X47795000Y-53300000I0J150000D01*
G01*
X47795000Y-51650000D01*
G75*
G02*
X47945000Y-51500000I150000J0D01*
G01*
X48245000Y-51500000D01*
G75*
G02*
X48395000Y-51650000I0J-150000D01*
G01*
X48395000Y-53300000D01*
G75*
G02*
X48245000Y-53450000I-150000J0D01*
G01*
G37*
G36*
G01*
X48245000Y-48500000D02*
X47945000Y-48500000D01*
G75*
G02*
X47795000Y-48350000I0J150000D01*
G01*
X47795000Y-46700000D01*
G75*
G02*
X47945000Y-46550000I150000J0D01*
G01*
X48245000Y-46550000D01*
G75*
G02*
X48395000Y-46700000I0J-150000D01*
G01*
X48395000Y-48350000D01*
G75*
G02*
X48245000Y-48500000I-150000J0D01*
G01*
G37*
G36*
G01*
X49515000Y-48500000D02*
X49215000Y-48500000D01*
G75*
G02*
X49065000Y-48350000I0J150000D01*
G01*
X49065000Y-46700000D01*
G75*
G02*
X49215000Y-46550000I150000J0D01*
G01*
X49515000Y-46550000D01*
G75*
G02*
X49665000Y-46700000I0J-150000D01*
G01*
X49665000Y-48350000D01*
G75*
G02*
X49515000Y-48500000I-150000J0D01*
G01*
G37*
G36*
G01*
X50785000Y-48500000D02*
X50485000Y-48500000D01*
G75*
G02*
X50335000Y-48350000I0J150000D01*
G01*
X50335000Y-46700000D01*
G75*
G02*
X50485000Y-46550000I150000J0D01*
G01*
X50785000Y-46550000D01*
G75*
G02*
X50935000Y-46700000I0J-150000D01*
G01*
X50935000Y-48350000D01*
G75*
G02*
X50785000Y-48500000I-150000J0D01*
G01*
G37*
G36*
G01*
X52055000Y-48500000D02*
X51755000Y-48500000D01*
G75*
G02*
X51605000Y-48350000I0J150000D01*
G01*
X51605000Y-46700000D01*
G75*
G02*
X51755000Y-46550000I150000J0D01*
G01*
X52055000Y-46550000D01*
G75*
G02*
X52205000Y-46700000I0J-150000D01*
G01*
X52205000Y-48350000D01*
G75*
G02*
X52055000Y-48500000I-150000J0D01*
G01*
G37*
D10*
X66250000Y-72635000D03*
X64750000Y-72635000D03*
X64250000Y-72635000D03*
X63750000Y-72635000D03*
X63250000Y-72635000D03*
X62750000Y-72635000D03*
X62250000Y-72635000D03*
X60750000Y-72635000D03*
X60750000Y-74365000D03*
X62250000Y-74365000D03*
X62750000Y-74365000D03*
X63250000Y-74365000D03*
X63750000Y-74365000D03*
X64250000Y-74365000D03*
X64750000Y-74365000D03*
X66250000Y-74365000D03*
M02*
